<?xml version="1.0" encoding="UTF-8" standalone="no"?>
<!-- Created with Inkscape (http://www.inkscape.org/) -->

<svg
   xmlns:dc="http://purl.org/dc/elements/1.1/"
   xmlns:cc="http://creativecommons.org/ns#"
   xmlns:rdf="http://www.w3.org/1999/02/22-rdf-syntax-ns#"
   xmlns:svg="http://www.w3.org/2000/svg"
   xmlns="http://www.w3.org/2000/svg"
   xmlns:sodipodi="http://sodipodi.sourceforge.net/DTD/sodipodi-0.dtd"
   xmlns:inkscape="http://www.inkscape.org/namespaces/inkscape"
   width="71.218773"
   height="15"
   id="svg2"
   version="1.1"
   inkscape:version="0.48.3.1 r9886"
   sodipodi:docname="branding.svg">
  <defs
     id="defs4" />
  <sodipodi:namedview
     id="base"
     pagecolor="#ffffff"
     bordercolor="#666666"
     borderopacity="1.0"
     inkscape:pageopacity="0.0"
     inkscape:pageshadow="2"
     inkscape:zoom="16.445525"
     inkscape:cx="32.039103"
     inkscape:cy="10.48205"
     inkscape:document-units="px"
     inkscape:current-layer="g3188"
     showgrid="true"
     fit-margin-top="0"
     fit-margin-left="0"
     fit-margin-right="0"
     fit-margin-bottom="0"
     inkscape:window-width="1280"
     inkscape:window-height="780"
     inkscape:window-x="-2"
     inkscape:window-y="-3"
     inkscape:window-maximized="1">
    <inkscape:grid
       type="xygrid"
       id="grid2987"
       empspacing="5"
       visible="true"
       enabled="true"
       snapvisiblegridlinesonly="true" />
  </sodipodi:namedview>
  <metadata
     id="metadata7">
    <rdf:RDF>
      <cc:Work
         rdf:about="">
        <dc:format>image/svg+xml</dc:format>
        <dc:type
           rdf:resource="http://purl.org/dc/dcmitype/StillImage" />
        <dc:title />
      </cc:Work>
    </rdf:RDF>
  </metadata>
  <g
     inkscape:label="Capa 1"
     inkscape:groupmode="layer"
     id="layer1"
     transform="translate(-139.62172,-580.69935)">
    <g
       id="brilliant">
      <g
         id="g3188"
         transform="translate(-0.17458356,0.03915638)"
         style="fill:#ffffff;fill-opacity:1;stroke:#000000;stroke-opacity:1;stroke-width:0;stroke-miterlimit:4;stroke-dasharray:none">
        <g
           id="g2987">
          <path
             inkscape:connector-curvature="0"
             id="rect3022"
             d="m 161.59493,581.14911 0,3.29199 c -0.60797,-0.65991 -1.47366,-1.09003 -2.4418,-1.09003 -1.83747,0 -3.31377,1.49801 -3.31377,3.3356 0,1.83758 1.4763,3.33565 3.31377,3.33565 0.96814,0 1.83383,-0.43016 2.4418,-1.09013 l 0,1.09013 0.89383,0 0,-8.87321 -0.89383,0 z m 14.19283,0 0,8.87321 0.89383,0 0,-1.09013 c 0.60794,0.65997 1.47371,1.09013 2.44174,1.09013 1.83759,0 3.31381,-1.49807 3.31381,-3.33565 0,-1.83761 -1.47622,-3.3356 -3.31381,-3.3356 -0.96803,0 -1.8338,0.43012 -2.44174,1.09003 l 0,-3.29199 -0.89383,0 z m 11.53294,0 0,2.20196 -1.32985,0 0,0.8939 1.32985,0 0,5.77735 0.8939,0 0,-5.77735 1.32993,0 0,-0.8939 -1.32993,0 0,-2.20196 -0.8939,0 z m -3.55359,0.43604 0,0.89378 0.89387,0 0,-0.89378 -0.89387,0 z m -40.57262,1.76592 c -1.83758,0 -3.33569,1.49799 -3.33569,3.3356 0,1.83758 1.49811,3.33565 3.33569,3.33565 0.96804,0 1.81192,-0.43016 2.41995,-1.09013 l 0,1.09013 0.89391,0 0,-6.67125 -0.89391,0 0,1.09003 c -0.60803,-0.65991 -1.45191,-1.09003 -2.41995,-1.09003 z m 4.64373,0 0,3.3356 0,3.31378 0.89376,0 0,-1.04642 0,-2.26736 c 0,-1.34755 1.09431,-2.4417 2.44186,-2.4417 1.34757,0 2.44172,1.09415 2.44172,2.4417 l 0,3.33565 0.87205,0 0,-3.31384 c 0,-1.83749 -1.47624,-3.35741 -3.31377,-3.35741 -0.96808,0 -1.8338,0.43012 -2.44186,1.09003 l 0,-1.09003 -0.89376,0 z m 15.98045,0 0,3.3356 c 0,0.0111 -8e-5,0.0119 0,0.0222 l 0,3.31382 0.87205,0 0,-3.33569 c 0,-1.34769 1.09423,-2.44173 2.44187,-2.44173 l 0,-0.89386 c -0.96921,0 -1.83371,0.4288 -2.44187,1.09002 l 0,-1.09002 -0.87205,0 z m 7.32532,0 c -1.83756,0 -3.33559,1.49799 -3.33559,3.3356 0,1.83758 1.49803,3.33565 3.33559,3.33565 1.83758,0 3.31379,-1.49807 3.31379,-3.33565 0,-1.83761 -1.47621,-3.3356 -3.31379,-3.3356 z m 12.62312,0 0,6.67125 0.89387,0 0,-6.67125 -0.89387,0 z m -40.57262,0.8939 c 1.34754,0 2.41995,1.09414 2.41995,2.4417 0,1.34751 -1.07241,2.44181 -2.41995,2.44181 -1.34757,0 -2.44183,-1.0943 -2.44183,-2.44181 0,-1.34756 1.09426,-2.4417 2.44183,-2.4417 z m 15.95864,0 c 1.34764,0 2.4418,1.09414 2.4418,2.4417 0,1.34752 -1.09416,2.44181 -2.4418,2.44181 -1.34748,0 -2.44176,-1.09429 -2.44176,-2.44181 0,-1.34756 1.09428,-2.4417 2.44176,-2.4417 z m 11.99086,0 c 1.34756,0 2.41996,1.09414 2.41996,2.4417 0,1.34752 -1.0724,2.44181 -2.41996,2.44181 -1.3475,0 -2.44175,-1.09429 -2.44175,-2.44181 0,-1.34756 1.09425,-2.4417 2.44175,-2.4417 z m 7.97934,0 c 1.3476,0 2.44177,1.09414 2.44177,2.4417 0,1.34752 -1.09417,2.44181 -2.44177,2.44181 -1.3475,0 -2.44174,-1.09429 -2.44174,-2.44181 0,-1.34756 1.09424,-2.4417 2.44174,-2.4417 z"
             style="fill:#ffffff;fill-opacity:1;stroke:#000000;stroke-width:0.06976485;stroke-miterlimit:4;stroke-opacity:1;stroke-dasharray:none" />
          <path
             inkscape:connector-curvature="0"
             id="rect3881-9"
             d="m 193.9838,581.49319 c -0.93925,0 -1.71875,0.77948 -1.71875,1.71875 0,0.93925 0.7795,1.71875 1.71875,1.71875 0.93926,0 1.71875,-0.7795 1.71875,-1.71875 0,-0.93927 -0.77949,-1.71875 -1.71875,-1.71875 z m 2.39583,0 0,3.38542 0.41667,0 0,-1.71875 c 0,-0.68885 0.5612,-1.25 1.25,-1.25 l 0,-0.41667 c -0.50969,0 -0.9383,0.21773 -1.25,0.57292 l 0,-0.57292 -0.41667,0 z m 3.75,0 c -0.93927,0 -1.71875,0.7274 -1.71875,1.66667 0,0.93925 0.77948,1.71875 1.71875,1.71875 0.50968,0 0.9383,-0.21774 1.25,-0.57292 0,0.11567 0,0.46798 0,0.46875 0,0.68887 -0.5612,1.25 -1.25,1.25 l 0,0.46875 c 0.93927,0 1.66667,-0.7794 1.66667,-1.71875 l 0,-1.61458 0,-1.66667 -0.41667,0 c 2e-5,8.7e-4 0,0.40677 0,0.57292 -0.3117,-0.35517 -0.74032,-0.57292 -1.25,-0.57292 z m 0,0.41667 c 0.68878,0 1.25,0.5612 1.25,1.25 0,0.68878 -0.56122,1.25 -1.25,1.25 -0.68878,0 -1.25,-0.56122 -1.25,-1.25 0,-0.6888 0.56122,-1.25 1.25,-1.25 z m -6.14583,0.0522 c 0.6888,0 1.25,0.5612 1.25,1.25 0,0.68879 -0.5612,1.25 -1.25,1.25 -0.68879,0 -1.25,-0.56121 -1.25,-1.25 0,-0.6888 0.56121,-1.25 1.25,-1.25 z m -2.60417,2.44792 0,0.46875 0.46875,0 0,-0.46875 -0.46875,0 z"
             style="fill:#ffffff;fill-opacity:1;stroke:#000000;stroke-opacity:1;stroke-width:0.07;stroke-miterlimit:4;stroke-dasharray:none" />
        </g>
      </g>
    </g>
  </g>
</svg>
