<?xml version="1.0" encoding="UTF-8" standalone="no"?>
<!-- Created with Inkscape (http://www.inkscape.org/) -->

<svg
   xmlns:dc="http://purl.org/dc/elements/1.1/"
   xmlns:cc="http://creativecommons.org/ns#"
   xmlns:rdf="http://www.w3.org/1999/02/22-rdf-syntax-ns#"
   xmlns:svg="http://www.w3.org/2000/svg"
   xmlns="http://www.w3.org/2000/svg"
   xmlns:sodipodi="http://sodipodi.sourceforge.net/DTD/sodipodi-0.dtd"
   xmlns:inkscape="http://www.inkscape.org/namespaces/inkscape"
   width="21.25"
   height="21.25"
   id="svg7229"
   sodipodi:version="0.32"
   inkscape:version="0.48.3 r9882"
   version="1.0"
   sodipodi:docname="configuration-icons.svgz"
   inkscape:output_extension="org.inkscape.output.svgz.inkscape">
  <defs
     id="defs7231">
    <linearGradient
       id="linearGradient4158">
      <stop
         id="stop4160"
         offset="0"
         style="stop-color:#ffffff;stop-opacity:1;" />
      <stop
         id="stop4162"
         offset="1"
         style="stop-color:#2a2a2a;stop-opacity:1;" />
    </linearGradient>
    <linearGradient
       id="linearGradient4158-6">
      <stop
         id="stop4160-1"
         offset="0"
         style="stop-color:#888888;stop-opacity:1;" />
      <stop
         id="stop4162-5"
         offset="1"
         style="stop-color:#232323;stop-opacity:1;" />
    </linearGradient>
    <linearGradient
       id="linearGradient3126">
      <stop
         id="stop3128"
         offset="0"
         style="stop-color:#888888;stop-opacity:1;" />
      <stop
         id="stop3130"
         offset="1"
         style="stop-color:#232323;stop-opacity:1;" />
    </linearGradient>
    <linearGradient
       id="linearGradient3133">
      <stop
         id="stop3135"
         offset="0"
         style="stop-color:#888888;stop-opacity:1;" />
      <stop
         id="stop3137"
         offset="1"
         style="stop-color:#232323;stop-opacity:1;" />
    </linearGradient>
    <linearGradient
       id="linearGradient3140">
      <stop
         id="stop3142"
         offset="0"
         style="stop-color:#888888;stop-opacity:1;" />
      <stop
         id="stop3144"
         offset="1"
         style="stop-color:#232323;stop-opacity:1;" />
    </linearGradient>
  </defs>
  <sodipodi:namedview
     id="base"
     pagecolor="#aaaaaa"
     bordercolor="#666666"
     borderopacity="1.0"
     inkscape:pageopacity="0"
     inkscape:pageshadow="2"
     inkscape:zoom="2.8284273"
     inkscape:cx="5.7216462"
     inkscape:cy="-8.2707982"
     inkscape:document-units="px"
     inkscape:current-layer="layer1"
     showgrid="true"
     inkscape:window-width="1366"
     inkscape:window-height="709"
     inkscape:window-x="0"
     inkscape:window-y="-3"
     showguides="true"
     inkscape:guide-bbox="true"
     gridtolerance="6"
     inkscape:window-maximized="1"
     fit-margin-top="0"
     fit-margin-left="0"
     fit-margin-right="0"
     fit-margin-bottom="0">
    <inkscape:grid
       type="xygrid"
       id="grid7245"
       visible="true"
       enabled="true"
       empspacing="5"
       snapvisiblegridlinesonly="true" />
  </sodipodi:namedview>
  <metadata
     id="metadata7234">
    <rdf:RDF>
      <cc:Work
         rdf:about="">
        <dc:format>image/svg+xml</dc:format>
        <dc:type
           rdf:resource="http://purl.org/dc/dcmitype/StillImage" />
      </cc:Work>
    </rdf:RDF>
  </metadata>
  <g
     inkscape:label="Camada 1"
     inkscape:groupmode="layer"
     id="layer1"
     transform="translate(-363.90514,-341.87374)">
    <g
       id="close"
       transform="matrix(1.25,0,0,1.25,-97.383926,-90.876259)"
       style="fill:#e6e6e6;stroke:#7f7f7f;stroke-opacity:1">
      <rect
         y="347.50504"
         x="389.53571"
         height="16"
         width="16"
         id="rect3403"
         style="opacity:0;fill:#e6e6e6;fill-opacity:0.49803922;fill-rule:nonzero;stroke:#7f7f7f;stroke-opacity:1" />
      <path
         sodipodi:nodetypes="ccccccccccccc"
         style="fill:#e6e6e6;fill-opacity:1;fill-rule:nonzero;stroke:#7f7f7f;stroke-width:0.40000001;stroke-linecap:round;stroke-linejoin:round;stroke-miterlimit:4;stroke-opacity:1;stroke-dasharray:none;stroke-dashoffset:0"
         d="m 401.95805,348.50504 -4.92233,4.92233 -4.92233,-4.92233 -1.57767,1.57767 4.92233,4.92233 -4.92233,4.92233 1.57767,1.57767 4.92233,-4.92233 4.92233,4.92233 1.57767,-1.57767 -4.92233,-4.92233 4.92233,-4.92233 -1.57767,-1.57767 z"
         id="path3507"
         inkscape:transform-center-x="117.13602"
         inkscape:transform-center-y="56.894638"
         inkscape:connector-curvature="0" />
    </g>
    <g
       id="rotate"
       transform="matrix(1.25,0,0,1.25,-85.133926,-90.626259)"
       style="fill:#ececec;stroke:#7f7f7f;stroke-opacity:1">
      <rect
         y="346.50504"
         x="340.53571"
         height="16"
         width="16"
         id="rect3407"
         style="opacity:0;fill:#ececec;fill-opacity:0.49803922;fill-rule:nonzero;stroke:#7f7f7f;stroke-opacity:1" />
      <path
         style="fill:#ececec;fill-opacity:1;fill-rule:nonzero;stroke:#7f7f7f;stroke-width:0.40000001;stroke-linecap:round;stroke-linejoin:round;stroke-miterlimit:4;stroke-opacity:1;stroke-dasharray:none;stroke-dashoffset:0"
         d="m 353.97018,346.64947 -1.50636,2.21729 c -1.10057,-0.74408 -2.23541,-1.08876 -3.56458,-1.08876 -3.51266,0 -6.36352,2.85086 -6.36352,6.36353 0,3.51266 2.85086,6.36351 6.36352,6.36351 3.51266,0 6.36353,-2.85085 6.36353,-6.36351 l -1.59088,0 c 0,2.63448 -2.13815,4.77263 -4.77265,4.77263 -2.63449,0 -4.77264,-2.13815 -4.77264,-4.77263 0,-2.63451 2.13815,-4.77265 4.77264,-4.77265 0.988,0 1.9079,0.30049 2.6697,0.81533 l -1.39201,2.04826 4.68812,-0.89487 -0.89487,-4.68813 z"
         id="path3511"
         inkscape:connector-curvature="0" />
    </g>
    <g
       id="configure"
       transform="matrix(1.25,0,0,1.25,-91.133926,-90.626259)"
       style="fill:#ececec;stroke:#7f7f7f;stroke-opacity:1">
      <rect
         style="opacity:0;fill:#ececec;fill-opacity:0.49803922;fill-rule:nonzero;stroke:#7f7f7f;stroke-opacity:1"
         id="rect3405"
         width="16"
         height="16"
         x="364.53571"
         y="346.50504" />
      <g
         transform="matrix(0.63745734,-0.27219895,0.27544452,0.62994615,347.85618,316.99086)"
         style="font-size:50px;font-style:normal;font-variant:normal;font-weight:normal;font-stretch:normal;line-height:125%;letter-spacing:0px;word-spacing:0px;fill:#f2f2f2;fill-opacity:1;stroke:#7f7f7f;stroke-width:0.57944275;stroke-miterlimit:4;stroke-opacity:1;stroke-dasharray:none;font-family:Entypo;-inkscape-font-specification:Entypo"
         id="text3082-4">
        <path
           d="m 19.25,64.45 c -2e-5,0.666678 0.18331,1.250011 0.55,1.75 0.36664,0.50001 0.86664,0.933343 1.5,1.3 -0.26669,0.766675 -0.56669,1.466674 -0.9,2.1 -0.66669,-0.166659 -1.28336,-0.133326 -1.85,0.1 -0.56669,0.200007 -1.08335,0.53334 -1.55,1 -0.90002,0.966672 -1.18335,2.100004 -0.85,3.4 -0.70002,0.366669 -1.38335,0.650002 -2.05,0.85 -0.36668,-0.599998 -0.85002,-1.08333 -1.45,-1.45 -0.56668,-0.366663 -1.18335,-0.549996 -1.85,-0.55 -0.66668,4e-6 -1.30001,0.183337 -1.9,0.55 C 8.29999,73.86667 7.81665,74.350002 7.45,74.95 6.78332,74.750002 6.09999,74.466669 5.4,74.1 5.73332,72.800004 5.45,71.666672 4.55,70.7 3.61666,69.800007 2.48333,69.516674 1.15,69.85 0.78333,69.150008 0.5,68.450008 0.3,67.75 0.89999,67.383343 1.38333,66.916677 1.75,66.35 2.11666,65.750011 2.29999,65.116678 2.3,64.45 2.29999,63.783346 2.11666,63.200014 1.75,62.7 1.38333,62.200015 0.89999,61.766682 0.3,61.4 0.5,60.700016 0.78333,60.000017 1.15,59.3 1.81666,59.466684 2.43333,59.450017 3,59.25 3.56666,59.016684 4.08333,58.666685 4.55,58.2 5.44999,57.300019 5.73332,56.166687 5.4,54.8 c 0.69999,-0.366644 1.38332,-0.649977 2.05,-0.85 0.36665,0.600022 0.84999,1.083355 1.45,1.45 0.59999,0.366688 1.23332,0.550021 1.9,0.55 0.66665,2.1e-5 1.28332,-0.183312 1.85,-0.55 0.59998,-0.366645 1.08332,-0.849978 1.45,-1.45 0.66665,0.200023 1.34998,0.483356 2.05,0.85 -0.33335,1.366687 -0.05,2.500019 0.85,3.4 0.46665,0.466685 0.98331,0.816684 1.55,1.05 0.56664,0.200017 1.18331,0.216684 1.85,0.05 0.33331,0.666683 0.63331,1.366683 0.9,2.1 -0.63336,0.366682 -1.13336,0.800015 -1.5,1.3 -0.36669,0.500014 -0.55002,1.083346 -0.55,1.75 M 10.8,69 c 0.63332,8e-6 1.21665,-0.116659 1.75,-0.35 0.56665,-0.233325 1.04998,-0.549991 1.45,-0.95 0.43331,-0.433324 0.76665,-0.916657 1,-1.45 0.23331,-0.566656 0.34998,-1.166655 0.35,-1.8 -2e-5,-1.266653 -0.45002,-2.333319 -1.35,-3.2 -0.86668,-0.899984 -1.93335,-1.349983 -3.2,-1.35 -0.63335,1.7e-5 -1.23335,0.116683 -1.8,0.35 -0.56668,0.23335 -1.06668,0.566683 -1.5,1 -0.40001,0.400015 -0.71668,0.883348 -0.95,1.45 -0.23334,0.533347 -0.35001,1.11668 -0.35,1.75 -1e-5,0.633345 0.11666,1.233344 0.35,1.8 0.23332,0.533343 0.54999,1.016676 0.95,1.45 0.43332,0.400009 0.93332,0.716675 1.5,0.95 0.56665,0.233341 1.16665,0.350008 1.8,0.35"
           id="path3087-8"
           inkscape:connector-curvature="0"
           style="fill:#f2f2f2;stroke:#7f7f7f;stroke-width:0.57944275;stroke-miterlimit:4;stroke-opacity:1;stroke-dasharray:none" />
      </g>
    </g>
    <g
       id="size-diagonal-tl2br"
       transform="matrix(1.25,0,0,1.25,-59.13393,-90.626259)"
       style="fill:#ececec;stroke:#7f7f7f;stroke-opacity:1">
      <rect
         y="346.50504"
         x="236.53572"
         height="16"
         width="16"
         id="rect2432"
         style="opacity:0;fill:#ececec;fill-opacity:0.49803922;fill-rule:nonzero;stroke:#7f7f7f;stroke-opacity:1" />
      <path
         sodipodi:nodetypes="cccccccccccccccccccccccccccccc"
         style="fill:#ececec;fill-opacity:1;stroke:#7f7f7f;stroke-width:0.40000001;stroke-linecap:round;stroke-linejoin:round;stroke-miterlimit:4;stroke-opacity:1;stroke-dasharray:none"
         d="m 238.50447,349.50504 c -0.53865,0 -0.96875,0.43011 -0.96875,0.96876 l 0,9.0625 c 0,0.53864 0.4301,0.96874 0.96875,0.96874 l 12.0625,0 c 0.53864,0 0.96875,-0.4301 0.96875,-0.96874 l 0,-9.0625 c 0,-0.53865 -0.43011,-0.96876 -0.96875,-0.96876 l -12.0625,0 z m 0.0313,1 12,0 0,9 -12,0 0,-9 z m 1,1 0,2.84376 1.0625,-1.0625 1.40625,1.40624 0.71875,-0.71874 -1.40626,-1.40626 1.0625,-1.0625 -2.84374,0 z m 7.53125,3.84376 -0.71876,0.6875 1.40626,1.40624 -1.0625,1.0625 2.84375,0 0,-2.78124 -1.0625,1.03124 -1.40625,-1.40624 z"
         id="path2438"
         inkscape:connector-curvature="0" />
    </g>
    <g
       id="size-diagonal-tr2bl"
       transform="matrix(1.25,0,0,1.25,-64.383926,-90.626259)"
       style="fill:#ececec;stroke:#7f7f7f;stroke-opacity:1">
      <rect
         transform="scale(-1,1)"
         style="opacity:0;fill:#ececec;fill-opacity:0.49803922;fill-rule:nonzero;stroke:#7f7f7f;stroke-opacity:1"
         id="rect3243"
         width="16"
         height="16"
         x="-273.53571"
         y="346.50504" />
      <path
         id="path3247"
         d="m 271.56697,349.50504 c 0.53865,0 0.96875,0.43011 0.96875,0.96876 l 0,9.0625 c 0,0.53864 -0.4301,0.96874 -0.96875,0.96874 l -12.0625,0 c -0.53864,0 -0.96875,-0.4301 -0.96875,-0.96874 l 0,-9.0625 c 0,-0.53865 0.43011,-0.96876 0.96875,-0.96876 l 12.0625,0 z m -0.0313,1 -12,0 0,9 12,0 0,-9 z m -1,1 0,2.84376 -1.0625,-1.0625 -1.40625,1.40624 -0.71875,-0.71874 1.40626,-1.40626 -1.0625,-1.0625 2.84374,0 z m -7.53125,3.84376 0.71876,0.6875 -1.40626,1.40624 1.0625,1.0625 -2.84375,0 0,-2.78124 1.0625,1.03124 1.40625,-1.40624 z"
         style="fill:#ececec;fill-opacity:1;stroke:#7f7f7f;stroke-width:0.40000001;stroke-linecap:round;stroke-linejoin:round;stroke-miterlimit:4;stroke-opacity:1;stroke-dasharray:none"
         sodipodi:nodetypes="cccccccccccccccccccccccccccccc"
         inkscape:connector-curvature="0" />
    </g>
    <g
       id="return-to-source"
       transform="matrix(1.330033,0,0,1.330033,-92.891327,-126.92411)"
       style="fill:#ececec;stroke:#7f7f7f;stroke-opacity:1">
      <path
         inkscape:label="#rect4132"
         sodipodi:nodetypes="ccccccsccsccccscccccccccccccccccsscccccsccsccccscccccccccccc"
         id="path3557"
         d="m 286.78572,369.50504 c -2.83433,0 -5.25,2 -5.25,4.125 l 0,2.875 7.875,0 c -0.22121,-0.0318 -0.43674,-0.11897 -0.59375,-0.28125 l -2,-2 c -0.29606,-0.2863 -0.37766,-0.71379 -0.21875,-1.09375 0.15889,-0.37996 0.52577,-0.63469 0.9375,-0.625 l 0,-1 c -0.002,-0.51763 0.39089,-0.95143 0.90625,-1 0.0312,-0.001 0.0625,-0.001 0.0937,0 l 2,0 c 0.55226,5e-5 0.99994,0.44774 1,1 l 0,1 c 0.41173,-0.01 0.77863,0.24504 0.9375,0.625 0.15889,0.37996 0.0773,0.80745 -0.21875,1.09375 l -2,2 c -0.15701,0.16228 -0.37254,0.24948 -0.59375,0.28125 l 7.875,0 0,-2.875 c 0,-2.125 -2.1657,-4.125 -5,-4.125 l -5.75,0 z m 1.75,2 0,2 -1,0 2,2 2,-2 -1,0 0,-2 -2,0 z m -7,6 0,2.875 c 0,2.125 2.1657,4.125 5,4.125 l 5.75,0 c 2.83433,0 5.25,-2 5.25,-4.125 l 0,-2.875 -7.875,0 c 0.22121,0.0318 0.43674,0.11897 0.59375,0.28125 l 2,2 c 0.29606,0.2863 0.37766,0.71379 0.21875,1.09375 -0.15889,0.37996 -0.52577,0.63469 -0.9375,0.625 l 0,1 c 0.002,0.51763 -0.39089,0.95143 -0.90625,1 -0.0312,10e-4 -0.0625,10e-4 -0.0937,0 l -2,0 c -0.55226,-5e-5 -0.99994,-0.44774 -1,-1 l 0,-1 c -0.41173,0.01 -0.77863,-0.24504 -0.9375,-0.625 -0.15889,-0.37996 -0.0773,-0.80745 0.21875,-1.09375 l 2,-2 c 0.15701,-0.16228 0.37254,-0.24948 0.59375,-0.28125 l -7.875,0 z m 8,1 -2,2 1,0 0,2 2,0 0,-2 1,0 -2,-2 z"
         style="fill:#ececec;fill-opacity:1;stroke:#7f7f7f;stroke-width:0.37593052;stroke-linecap:round;stroke-linejoin:round;stroke-miterlimit:4;stroke-opacity:1;stroke-dasharray:none"
         inkscape:connector-curvature="0" />
    </g>
    <g
       id="unmaximize"
       transform="matrix(1.25,0,0,1.25,-58.633367,-102.27215)"
       style="fill:#ececec;stroke:#7f7f7f;stroke-opacity:1">
      <rect
         y="390.50504"
         x="236.53572"
         height="16"
         width="16"
         id="rect2455"
         style="opacity:0;fill:#ececec;fill-opacity:0.49803922;fill-rule:nonzero;stroke:#7f7f7f;stroke-opacity:1" />
      <path
         d="m 238.50397,392.50504 c -0.53864,0 -0.96875,0.4301 -0.96875,0.96875 l 0,9.0625 c 0,0.53864 0.43011,0.96875 0.96875,0.96875 l 12.0625,0 c 0.53864,0 0.96875,-0.43011 0.96875,-0.96875 l 0,-9.0625 c 0,-0.53865 -0.43011,-0.96875 -0.96875,-0.96875 l -12.0625,0 z m 0.0313,1 12,0 0,9 -12,0 0,-9 z m 4,4 0,-2.48329 -0.86057,0.89677 -1.40625,-1.40624 -0.71875,0.71874 1.40625,1.40626 -0.85937,0.86776 2.43869,0 z m 6.4363,0 -0.82812,-0.86776 1.40625,-1.40626 -0.71875,-0.71874 -1.40625,1.40624 -0.88943,-0.88281 0,2.46933 2.4363,0 z m -8.70312,4.00724 1.40625,-1.40624 0.86057,0.87656 0,-2.47756 -2.49819,0 0.91887,0.9135 -1.40625,1.40624 0.71875,0.6875 z m 8.5625,0 0.71875,-0.6875 -1.40625,-1.40624 0.89062,-0.9135 -2.4988,0 0,2.42911 0.88943,-0.82811 1.40625,1.40624 z"
         style="fill:#ececec;fill-opacity:1;stroke:#7f7f7f;stroke-width:0.40000001;stroke-linecap:round;stroke-linejoin:round;stroke-miterlimit:4;stroke-opacity:1;stroke-dasharray:none"
         id="path2479"
         inkscape:connector-curvature="0" />
    </g>
    <g
       id="size-horizontal"
       transform="matrix(1.25,0,0,1.25,-70.133926,-90.626259)"
       style="fill:#ececec;stroke:#7f7f7f;stroke-opacity:1">
      <path
         sodipodi:nodetypes="cccccccc"
         id="path3264"
         d="m 283.53572,352.50504 -2,1.51168 1.9989,1.48832 0,-1 3.0011,0 0,-1 -3.0011,0 10e-4,-1 z"
         style="fill:#ececec;fill-opacity:1;fill-rule:evenodd;stroke:#7f7f7f;stroke-width:0.40000001;stroke-linecap:butt;stroke-linejoin:miter;stroke-miterlimit:4;stroke-opacity:1;stroke-dasharray:none"
         inkscape:connector-curvature="0" />
      <path
         sodipodi:nodetypes="cccccccc"
         id="path3262"
         d="m 292.53572,352.50504 -0.004,0.99688 -3,0 0,1 3,0 0.002,1.00312 2.00184,-1.50394 -2,-1.49606 z"
         style="fill:#ececec;fill-opacity:1;fill-rule:evenodd;stroke:#7f7f7f;stroke-width:0.40000001;stroke-linecap:butt;stroke-linejoin:miter;stroke-miterlimit:4;stroke-opacity:1;stroke-dasharray:none"
         inkscape:connector-curvature="0" />
      <rect
         style="opacity:0;fill:#ececec;fill-opacity:0.49803922;fill-rule:nonzero;stroke:#7f7f7f;stroke-opacity:1"
         id="rect3413"
         width="16"
         height="16"
         x="280.53571"
         y="346.50504" />
    </g>
    <g
       id="size-vertical"
       transform="matrix(1.25,0,0,1.25,-74.175743,-90.876259)"
       style="fill:#ececec;stroke:#7f7f7f;stroke-opacity:1">
      <path
         sodipodi:nodetypes="cccccccc"
         id="path3266"
         d="m 305.08123,348.50504 -1.54551,2 1,0 0,3 1,0 0,-3 1,0 -1.45449,-2 z"
         style="fill:#ececec;fill-opacity:1;fill-rule:evenodd;stroke:#7f7f7f;stroke-width:0.40000001;stroke-linecap:butt;stroke-linejoin:miter;stroke-miterlimit:4;stroke-opacity:1;stroke-dasharray:none"
         inkscape:connector-curvature="0" />
      <path
         sodipodi:nodetypes="cccccccc"
         id="path3256"
         d="m 304.53572,356.50504 0,3 -1,0 1.55709,2 1.44291,-2 -1,0 0,-3 -1,0 z"
         style="fill:#ececec;fill-opacity:1;fill-rule:evenodd;stroke:#7f7f7f;stroke-width:0.40000001;stroke-linecap:butt;stroke-linejoin:miter;stroke-miterlimit:4;stroke-opacity:1;stroke-dasharray:none"
         inkscape:connector-curvature="0" />
      <rect
         y="347.50504"
         x="296.70297"
         height="16"
         width="16"
         id="rect3411"
         style="opacity:0;fill:#ececec;fill-opacity:0.49803922;fill-rule:nonzero;stroke:#7f7f7f;stroke-opacity:1" />
    </g>
    <g
       id="move"
       transform="matrix(1.25,0,0,1.25,-77.388367,-89.13016)"
       style="fill:#ececec;stroke:#7f7f7f;stroke-opacity:1">
      <path
         style="fill:#ececec;fill-opacity:1;fill-rule:evenodd;stroke:#7f7f7f;stroke-width:0.40000001;stroke-linecap:butt;stroke-linejoin:miter;stroke-miterlimit:4;stroke-opacity:1;stroke-dasharray:none"
         d="m 323.08123,346.50504 -1.54551,2 1,0 0,3 1,0 0,-3 1,0 -1.45449,-2 z"
         id="path3398"
         sodipodi:nodetypes="cccccccc"
         inkscape:connector-curvature="0" />
      <path
         style="fill:#ececec;fill-opacity:1;fill-rule:evenodd;stroke:#7f7f7f;stroke-width:0.40000001;stroke-linecap:butt;stroke-linejoin:miter;stroke-miterlimit:4;stroke-opacity:1;stroke-dasharray:none"
         d="m 322.53572,354.50504 0,3 -1,0 1.55709,2 1.44291,-2 -1,0 0,-3 -1,0 z"
         id="path3400"
         sodipodi:nodetypes="cccccccc"
         inkscape:connector-curvature="0" />
      <rect
         style="opacity:0;fill:#ececec;fill-opacity:0.49803922;fill-rule:nonzero;stroke:#7f7f7f;stroke-opacity:1"
         id="rect3402"
         width="16"
         height="16"
         x="314.53571"
         y="345.50504" />
      <path
         style="fill:#ececec;fill-opacity:1;fill-rule:evenodd;stroke:#7f7f7f;stroke-width:0.40000001;stroke-linecap:butt;stroke-linejoin:miter;stroke-miterlimit:4;stroke-opacity:1;stroke-dasharray:none"
         d="m 318.53927,351.50816 -2,1.51168 1.9989,1.48832 0,-1 3.0011,0 0,-1 -3.0011,0 0.001,-1 z"
         id="path3410"
         sodipodi:nodetypes="cccccccc"
         inkscape:connector-curvature="0" />
      <path
         style="fill:#ececec;fill-opacity:1;fill-rule:evenodd;stroke:#7f7f7f;stroke-width:0.40000001;stroke-linecap:butt;stroke-linejoin:miter;stroke-miterlimit:4;stroke-opacity:1;stroke-dasharray:none"
         d="m 327.53927,351.50816 -0.004,0.99688 -3,0 0,1 3,0 0.002,1.00312 2.00184,-1.50394 -2,-1.49606 z"
         id="path3412"
         sodipodi:nodetypes="cccccccc"
         inkscape:connector-curvature="0" />
    </g>
    <g
       id="maximize"
       transform="matrix(1.25,0,0,1.25,-59.13393,-96.126259)"
       style="fill:#ececec;stroke:#7f7f7f;stroke-opacity:1">
      <rect
         style="opacity:0;fill:#ececec;fill-opacity:0.49803922;fill-rule:nonzero;stroke:#7f7f7f;stroke-opacity:1"
         id="rect3401"
         width="16"
         height="16"
         x="236.53572"
         y="368.50504" />
      <path
         id="scale"
         d="m 238.50447,370.50504 c -0.53864,0 -0.96875,0.43011 -0.96875,0.96876 l 0,9.0625 c 0,0.53864 0.43011,0.96874 0.96875,0.96874 l 12.0625,0 c 0.53864,0 0.96875,-0.4301 0.96875,-0.96874 l 0,-9.0625 c 0,-0.53865 -0.43011,-0.96876 -0.96875,-0.96876 l -12.0625,0 z m 0.0313,1 12,0 0,9 -12,0 0,-9 z m 1,1 0,2.84376 1.0625,-1.0625 1.40625,1.40624 0.71875,-0.71874 -1.40625,-1.40626 1.0625,-1.0625 -2.84375,0 z m 7.15625,0 1.0625,1.0625 -1.40625,1.40626 0.71875,0.71874 1.40625,-1.40624 1.0625,1.0625 0,-2.84376 -2.84375,0 z m -4.6875,3.84376 -1.40625,1.40624 -1.0625,-1.03124 0,2.78124 2.84375,0 -1.0625,-1.0625 1.40625,-1.40624 -0.71875,-0.6875 z m 5.0625,0 -0.71875,0.6875 1.40625,1.40624 -1.0625,1.0625 2.84375,0 0,-2.78124 -1.0625,1.03124 -1.40625,-1.40624 z"
         style="fill:#ececec;fill-opacity:1;stroke:#7f7f7f;stroke-width:0.40000001;stroke-linecap:round;stroke-linejoin:round;stroke-miterlimit:4;stroke-opacity:1;stroke-dasharray:none"
         inkscape:connector-curvature="0" />
    </g>
    <g
       id="status"
       transform="matrix(1.25,0,0,1.25,-64.633926,-96.126259)"
       style="fill:#ececec;stroke:#7f7f7f;stroke-opacity:1">
      <rect
         transform="scale(-1,1)"
         y="368.50504"
         x="-274.53571"
         height="16"
         width="16"
         id="rect2428"
         style="opacity:0;fill:#ececec;fill-opacity:0.49803922;fill-rule:nonzero;stroke:#7f7f7f;stroke-opacity:1" />
      <path
         id="path2432"
         d="m 260.50448,370.50504 c -0.53864,0 -0.96875,0.4301 -0.96875,0.96875 l 0,9.0625 c 0,0.53864 0.43011,0.96875 0.96875,0.96875 l 12.0625,0 c 0.53865,0 0.96875,-0.43011 0.96875,-0.96875 l 0,-9.0625 c 0,-0.53865 -0.4301,-0.96875 -0.96875,-0.96875 l -12.0625,0 z m 0.0313,1 12,0 -10e-6,4.01562 -3.03125,0 -0.28125,0 -0.15625,0.25 -0.96875,1.76563 -2.15625,-3.75 -0.34375,-0.5625 -0.4375,0.46875 -1.8125,1.8125 -2.8125,0 10e-6,-4 z m 4.84374,3.34375 2.28125,3.9375 0.4375,0.75 0.4375,-0.75 1.25,-2.26563 2.75,0 10e-6,3.98438 -12,0 -10e-6,-4 3,0 0.21875,0 0.125,-0.15625 1.5,-1.5 z"
         style="fill:#ececec;fill-opacity:1;stroke:#7f7f7f;stroke-width:0.40000001;stroke-linecap:round;stroke-linejoin:round;stroke-miterlimit:4;stroke-opacity:1;stroke-dasharray:none"
         sodipodi:nodetypes="ccccccccccccccccccccccccccccccccccc"
         inkscape:connector-curvature="0" />
    </g>
    <g
       id="collapse"
       transform="matrix(1.25,0,0,1.25,-75.883926,-127.62626)"
       style="fill:#ececec;stroke:#7f7f7f;stroke-opacity:1">
      <rect
         style="opacity:0;fill:#ececec;fill-opacity:0.49803922;stroke:#7f7f7f;stroke-opacity:1"
         id="rect2915"
         width="16"
         height="16"
         x="303.53571"
         y="394.50504" />
      <rect
         style="fill:#ececec;fill-opacity:1;stroke:#7f7f7f;stroke-width:0.40000001;stroke-miterlimit:4;stroke-opacity:1;stroke-dasharray:none"
         id="rect2917"
         width="12"
         height="2.0038605"
         x="305.53571"
         y="401.50119"
         ry="0" />
      <path
         id="path2919"
         d="m 307.53572,396.50504 4,4 4,-4 -8,0 z"
         style="fill:#ececec;fill-opacity:1;fill-rule:evenodd;stroke:#7f7f7f;stroke-width:0.40000001;stroke-linejoin:round;stroke-miterlimit:4;stroke-opacity:1;stroke-dasharray:none"
         sodipodi:nodetypes="cccc"
         inkscape:connector-curvature="0" />
      <path
         sodipodi:nodetypes="cccc"
         style="fill:#ececec;fill-opacity:1;fill-rule:evenodd;stroke:#7f7f7f;stroke-width:0.40000001;stroke-linejoin:round;stroke-miterlimit:4;stroke-opacity:1;stroke-dasharray:none"
         d="m 307.53572,408.50504 4,-4 4,4 -8,0 z"
         id="path2926"
         inkscape:connector-curvature="0" />
    </g>
    <g
       id="restore"
       transform="matrix(1.25,0,0,1.25,-81.133926,-127.62626)"
       style="fill:#ececec;stroke:#7f7f7f;stroke-opacity:1">
      <rect
         y="394.50504"
         x="324.53571"
         height="16"
         width="16"
         id="rect3718"
         style="opacity:0;fill:#ececec;fill-opacity:0.49803922;stroke:#7f7f7f;stroke-opacity:1" />
      <rect
         ry="0"
         y="401.50119"
         x="326.53571"
         height="2.0038605"
         width="12"
         id="rect3724"
         style="fill:#ececec;fill-opacity:1;stroke:#7f7f7f;stroke-width:0.47999999;stroke-miterlimit:4;stroke-opacity:1;stroke-dasharray:none" />
      <path
         sodipodi:nodetypes="cccc"
         style="fill:#ececec;fill-opacity:1;fill-rule:evenodd;stroke:#7f7f7f;stroke-width:0.40000001;stroke-linejoin:round;stroke-miterlimit:4;stroke-opacity:1;stroke-dasharray:none"
         d="m 328.53572,404.50504 4,4 4,-4 -8,0 z"
         id="path3726"
         inkscape:connector-curvature="0" />
      <path
         id="path3728"
         d="m 328.53572,400.50504 4,-4 4,4 -8,0 z"
         style="fill:#ececec;fill-opacity:1;fill-rule:evenodd;stroke:#7f7f7f;stroke-width:0.40000001;stroke-linejoin:round;stroke-miterlimit:4;stroke-opacity:1;stroke-dasharray:none"
         sodipodi:nodetypes="cccc"
         inkscape:connector-curvature="0" />
    </g>
    <g
       transform="translate(-47.999986,-8.9999954)"
       id="delete">
      <rect
         y="398.50504"
         x="307.53571"
         height="16"
         width="16"
         id="rect3770"
         style="fill:#802626;fill-opacity:0;fill-rule:nonzero;stroke:none" />
      <path
         inkscape:connector-curvature="0"
         id="path2922"
         d="m 314.53572,399.50504 c -0.554,0 -1,0.446 -1,1 l 0,1 -2.5625,0 c -0.241,0 -0.4375,0.1965 -0.4375,0.4375 l 0,0.5 c 0,0.24 0.3215,0.4375 0.5625,0.4375 0.241,0 0.4375,0.1965 0.4375,0.4375 l 0,8.1875 c 0,0.53297 0.40744,1 1,1 l 7,0 c 0.63775,0 1,-0.32811 1,-1 l 0,-8.1875 c 0,-0.24 0.1965,-0.4375 0.4375,-0.4375 0.241,0 0.5625,-0.1975 0.5625,-0.4375 l 0,-0.5 c 0,-0.24 -0.1955,-0.4375 -0.4375,-0.4375 l -2.5625,0 0,-1 c 0,-0.554 -0.446,-1 -1,-1 l -3,0 z m 0,1 3,0 0,1 -3,0 0,-1 z m -1.5,2.5625 c 0.241,0 0.5,0.1975 0.5,0.4375 l 0,7.625 c 0,0.24 -0.258,0.4375 -0.5,0.4375 -0.241,0 -0.5,-0.1965 -0.5,-0.4375 l 0,-7.625 c 0,-0.24 0.259,-0.4375 0.5,-0.4375 z m 3,0 c 0.241,0 0.5,0.16625 0.5,0.40625 l 0,7.625 c 0,0.24 -0.259,0.46875 -0.5,0.46875 -0.241,0 -0.5,-0.22775 -0.5,-0.46875 l 0,-7.59375 c 0,-0.24 0.259,-0.4375 0.5,-0.4375 z m 3,0 c 0.241,0 0.5,0.1975 0.5,0.4375 l 0,7.5625 c 0,0.24 -0.259,0.4375 -0.5,0.4375 -0.241,0 -0.5,-0.1965 -0.5,-0.4375 l 0,-7.5625 c 0,-0.24 0.259,-0.4375 0.5,-0.4375 z"
         style="fill:#ececec;fill-opacity:1;stroke:#7f7f7f;stroke-width:0.5;stroke-miterlimit:4;stroke-opacity:1;stroke-dasharray:none" />
    </g>
    <g
       transform="translate(-47.999986,-8.9999954)"
       id="add">
      <rect
         y="397.50504"
         x="350.53571"
         height="16"
         width="16"
         id="rect3816"
         style="fill:#ffffff;fill-opacity:0;fill-rule:nonzero;stroke:none" />
      <path
         inkscape:connector-curvature="0"
         id="rect3778"
         transform="translate(214.53572,326.50504)"
         d="m 143,73 0,5 -5,0 0,2 5,0 0,5 2,0 0,-5 5,0 0,-2 -5,0 0,-5 -2,0 z"
         style="fill:#ececec;fill-opacity:1;fill-rule:nonzero;stroke:#7f7f7f;stroke-width:0.5;stroke-linejoin:round;stroke-miterlimit:4;stroke-opacity:1;stroke-dasharray:none"
         sodipodi:nodetypes="ccccccccccccc" />
    </g>
    <g
       id="remove"
       transform="translate(-47.999976,-7.9999954)">
      <rect
         style="fill:#ffffff;fill-opacity:0;fill-rule:nonzero;stroke:none"
         id="rect3818"
         width="16"
         height="16"
         x="368.53571"
         y="396.50504" />
      <rect
         y="403.50504"
         x="370.53571"
         height="2"
         width="12"
         id="rect3787"
         style="fill:#ececec;fill-opacity:1;fill-rule:nonzero;stroke:#7f7f7f;stroke-width:0.5;stroke-linejoin:round;stroke-miterlimit:4;stroke-opacity:1;stroke-dasharray:none"
         ry="4.5996094e-06" />
    </g>
    <g
       id="filter"
       transform="translate(-105.99998,-8.9999954)">
      <rect
         y="399.50504"
         x="387.53571"
         height="16"
         width="16"
         id="rect3912"
         style="fill:#43a958;fill-opacity:0;fill-rule:nonzero;stroke:none" />
      <path
         inkscape:connector-curvature="0"
         id="path3888"
         d="m 389.94134,400.50724 a 0.50039361,0.49997292 0 0 0 -0.31271,0.78112 l 3.94015,6.15521 0,5.56155 a 0.50039361,0.49997292 0 0 0 0.50033,0.49992 l 3.03329,0 a 0.50039361,0.49997292 0 0 0 0.50034,-0.49992 l 0,-5.56155 3.84633,-6.15521 a 0.50039361,0.49997292 0 0 0 -0.40652,-0.78112 l -11.00739,0 a 0.50039361,0.49997292 0 0 0 -0.0938,0 z m 1.00067,0.99983 9.19368,0 -3.47108,5.56156 a 0.50039361,0.49997292 0 0 0 -0.0625,0.24996 l 0,5.18662 -2.03262,0 0,-5.18662 a 0.50039361,0.49997292 0 0 0 -0.0625,-0.24996 l -3.5649,-5.56156 z"
         style="font-size:medium;font-style:normal;font-variant:normal;font-weight:normal;font-stretch:normal;text-indent:0;text-align:start;text-decoration:none;line-height:normal;letter-spacing:normal;word-spacing:normal;text-transform:none;direction:ltr;block-progression:tb;writing-mode:lr-tb;text-anchor:start;color:#000000;fill:#ececec;fill-opacity:1;stroke:#7f7f7f;stroke-width:0.5;stroke-miterlimit:4;stroke-opacity:1;stroke-dasharray:none;marker:none;visibility:visible;display:inline;overflow:visible;enable-background:accumulate;font-family:Bitstream Vera Sans;-inkscape-font-specification:Bitstream Vera Sans" />
    </g>
    <text
       xml:space="preserve"
       style="font-size:56px;font-style:normal;font-variant:normal;font-weight:normal;font-stretch:normal;line-height:125%;letter-spacing:0px;word-spacing:0px;fill:#000000;fill-opacity:1;stroke:none;font-family:Entypo;-inkscape-font-specification:Entypo"
       x="-197.24998"
       y="92.999992"
       id="text3064"
       sodipodi:linespacing="125%"
       transform="translate(363.90514,341.87374)"><tspan
         sodipodi:role="line"
         id="tspan3066"
         x="-197.24998"
         y="92.999992" /></text>
    <g
       id="help"
       transform="translate(-5.8209023,-10.879999)">
      <g
         style="fill:#ececec;stroke:#7f7f7f;stroke-opacity:1"
         transform="matrix(1.25,0,0,1.25,-80.01451,-88.50756)"
         id="123456">
        <rect
           style="opacity:0;fill:#ececec;fill-opacity:0.49803922;stroke:#7f7f7f;stroke-opacity:1"
           id="rect3273"
           width="16"
           height="16"
           x="347.53571"
           y="373.50504" />
      </g>
      <g
         id="text3068"
         style="font-size:50px;font-style:normal;font-variant:normal;font-weight:normal;font-stretch:normal;line-height:125%;letter-spacing:0px;word-spacing:0px;fill:#f2f2f2;fill-opacity:1;stroke:#7f7f7f;stroke-width:0.6426699;stroke-miterlimit:4;stroke-opacity:1;stroke-dasharray:none;font-family:Entypo;-inkscape-font-specification:Entypo"
         transform="matrix(0.75661376,0,0,0.79999976,487.00116,314.32376)">
        <path
           style="fill:#f2f2f2;stroke:#7f7f7f;stroke-width:0.6426699;stroke-miterlimit:4;stroke-opacity:1;stroke-dasharray:none"
           inkscape:connector-curvature="0"
           id="path3073"
           d="m -157.14998,82.55 c 1.43331,1.033354 2.14998,2.55002 2.15,4.55 -2e-5,0.63335 -0.10002,1.216683 -0.3,1.75 -0.20002,0.500015 -0.45002,0.966682 -0.75,1.4 -0.20002,0.266681 -0.50002,0.566681 -0.9,0.9 -0.36669,0.300013 -0.81669,0.650013 -1.35,1.05 l -1.1,0.8 c -0.26668,0.200012 -0.51668,0.433345 -0.75,0.7 -0.23335,0.233344 -0.40002,0.500011 -0.5,0.8 -0.0667,0.166677 -0.11668,0.333343 -0.15,0.5 -2e-5,0.133343 -2e-5,0.333343 0,0.6 -2e-5,0.06668 -0.0333,0.150009 -0.1,0.25 -0.0334,0.06668 -0.13335,0.100009 -0.3,0.1 l -3.2,0 c -0.20001,9e-6 -0.31668,-0.03333 -0.35,-0.1 -0.0334,-0.09999 -0.05,-0.183324 -0.05,-0.25 0.0333,-0.69999 0.0833,-1.29999 0.15,-1.8 0.0667,-0.533322 0.23332,-0.966655 0.5,-1.3 0.26665,-0.266654 0.56665,-0.549987 0.9,-0.85 0.36665,-0.33332 0.73332,-0.63332 1.1,-0.9 0.39999,-0.299986 0.81665,-0.583319 1.25,-0.85 0.16665,-0.133318 0.31665,-0.266652 0.45,-0.4 0.13332,-0.133318 0.24998,-0.283318 0.35,-0.45 0.46665,-0.56665 0.69998,-1.133316 0.7,-1.7 -2e-5,-0.766649 -0.21668,-1.433315 -0.65,-2 -0.40002,-0.59998 -1.16668,-0.89998 -2.3,-0.9 -1.10001,2e-5 -1.88335,0.366687 -2.35,1.1 -0.46668,0.766685 -0.70001,1.533351 -0.7,2.3 l -4.1,0 c 0.1,-2.733314 1.03333,-4.649978 2.8,-5.75 1.13332,-0.73331 2.51665,-1.099976 4.15,-1.1 2.16665,2.4e-5 3.96665,0.51669 5.4,1.55 m -5.45,15.85 c 0.76665,0.03334 1.38332,0.300006 1.85,0.8 0.49998,0.466672 0.73332,1.08334 0.7,1.85 -0.0333,0.76667 -0.30002,1.38334 -0.8,1.85 -0.50002,0.43333 -1.13335,0.63333 -1.9,0.6 -0.70001,-0.0333 -1.30001,-0.28333 -1.8,-0.75 -0.50001,-0.46666 -0.73334,-1.08333 -0.7,-1.85 0.0333,-0.76666 0.29999,-1.383328 0.8,-1.85 0.53332,-0.466661 1.14999,-0.683327 1.85,-0.65" />
      </g>
    </g>
    <text
       xml:space="preserve"
       style="font-size:64px;font-style:normal;font-variant:normal;font-weight:normal;font-stretch:normal;line-height:125%;letter-spacing:0px;word-spacing:0px;fill:#000000;fill-opacity:1;stroke:none;font-family:Entypo;-inkscape-font-specification:Entypo"
       x="-42.779957"
       y="94.435547"
       id="text3865"
       sodipodi:linespacing="125%"
       transform="translate(363.90514,341.87374)"><tspan
         sodipodi:role="line"
         id="tspan3867"
         x="-42.779957"
         y="94.435547" /></text>
  </g>
</svg>
