<?xml version="1.0" encoding="UTF-8" standalone="no"?>
<!-- Created with Inkscape (http://www.inkscape.org/) -->
<svg
   xmlns:dc="http://purl.org/dc/elements/1.1/"
   xmlns:cc="http://creativecommons.org/ns#"
   xmlns:rdf="http://www.w3.org/1999/02/22-rdf-syntax-ns#"
   xmlns:svg="http://www.w3.org/2000/svg"
   xmlns="http://www.w3.org/2000/svg"
   xmlns:xlink="http://www.w3.org/1999/xlink"
   xmlns:sodipodi="http://sodipodi.sourceforge.net/DTD/sodipodi-0.dtd"
   xmlns:inkscape="http://www.inkscape.org/namespaces/inkscape"
   id="svg2"
   sodipodi:version="0.32"
   inkscape:version="0.46"
   width="80"
   height="30"
   sodipodi:docbase="/media/disk"
   sodipodi:docname="microblog.svgz"
   inkscape:output_extension="org.inkscape.output.svgz.inkscape"
   inkscape:export-filename="/home/pinheiro/Documents/pics/estilo/plasma/Desenho-1.png"
   inkscape:export-xdpi="119.98476"
   inkscape:export-ydpi="119.98476"
   version="1.0">
  <sodipodi:namedview
     inkscape:window-height="742"
     inkscape:window-width="1016"
     inkscape:pageshadow="2"
     inkscape:pageopacity="1"
     guidetolerance="10.0"
     gridtolerance="10.0"
     objecttolerance="10.0"
     borderopacity="1.0"
     bordercolor="#666666"
     pagecolor="#cecece"
     id="base"
     inkscape:zoom="4.8582108"
     inkscape:cx="5.4141295"
     inkscape:cy="24.394084"
     inkscape:window-x="6"
     inkscape:window-y="44"
     inkscape:current-layer="svg2"
     showgrid="false"
     showguides="true"
     inkscape:guide-bbox="true">
    <inkscape:grid
       type="xygrid"
       id="grid2902"
       spacingy="1px"
       spacingx="1px"
       empspacing="5"
       visible="true"
       enabled="true" />
    <sodipodi:guide
       orientation="vertical"
       position="1693"
       id="guide3364" />
    <sodipodi:guide
       orientation="horizontal"
       position="651.86406"
       id="guide3366" />
    <sodipodi:guide
       orientation="vertical"
       position="2161.6254"
       id="guide3852" />
  </sodipodi:namedview>
  <metadata
     id="metadata7">
    <rdf:RDF>
      <cc:Work
         rdf:about="">
        <dc:format>image/svg+xml</dc:format>
        <dc:type
           rdf:resource="http://purl.org/dc/dcmitype/StillImage" />
      </cc:Work>
    </rdf:RDF>
  </metadata>
  <defs
     id="defs5">
    <linearGradient
       id="linearGradient3182">
      <stop
         style="stop-color:#ffffff;stop-opacity:1;"
         offset="0"
         id="stop3184" />
      <stop
         style="stop-color:#c7c7c7;stop-opacity:1;"
         offset="1"
         id="stop3186" />
    </linearGradient>
    <linearGradient
       inkscape:collect="always"
       id="linearGradient3191">
      <stop
         style="stop-color:#8b98e4;stop-opacity:1;"
         offset="0"
         id="stop3193" />
      <stop
         style="stop-color:#8b98e4;stop-opacity:0;"
         offset="1"
         id="stop3195" />
    </linearGradient>
    <linearGradient
       id="linearGradient3183">
      <stop
         style="stop-color:#ffffff;stop-opacity:1;"
         offset="0"
         id="stop3185" />
      <stop
         style="stop-color:#ffffff;stop-opacity:0;"
         offset="1"
         id="stop3187" />
    </linearGradient>
    <inkscape:perspective
       sodipodi:type="inkscape:persp3d"
       inkscape:vp_x="0 : 526.18109 : 1"
       inkscape:vp_y="0 : 1000 : 0"
       inkscape:vp_z="744.09448 : 526.18109 : 1"
       inkscape:persp3d-origin="372.04724 : 350.78739 : 1"
       id="perspective30" />
    <linearGradient
       inkscape:collect="always"
       xlink:href="#linearGradient3183"
       id="linearGradient3211"
       gradientUnits="userSpaceOnUse"
       x1="17.173977"
       y1="9.4695978"
       x2="17.173977"
       y2="39.55246"
       gradientTransform="translate(0,7.8466159e-2)" />
    <linearGradient
       inkscape:collect="always"
       xlink:href="#linearGradient3191"
       id="linearGradient3253"
       gradientUnits="userSpaceOnUse"
       gradientTransform="translate(0,10.703529)"
       x1="55.458542"
       y1="9.9272108"
       x2="55.458542"
       y2="30.336103" />
    <linearGradient
       inkscape:collect="always"
       xlink:href="#linearGradient3191"
       id="linearGradient3255"
       gradientUnits="userSpaceOnUse"
       gradientTransform="translate(0,10.849078)"
       x1="114.53379"
       y1="15.390284"
       x2="114.53379"
       y2="28.907394" />
    <linearGradient
       inkscape:collect="always"
       xlink:href="#linearGradient3191"
       id="linearGradient3259"
       gradientUnits="userSpaceOnUse"
       gradientTransform="translate(0,7.8466159e-2)"
       x1="55.458542"
       y1="20.714615"
       x2="55.458542"
       y2="39.515846" />
    <linearGradient
       inkscape:collect="always"
       xlink:href="#linearGradient3191"
       id="linearGradient3261"
       gradientUnits="userSpaceOnUse"
       gradientTransform="translate(0,7.8466159e-2)"
       x1="55.458542"
       y1="20.714615"
       x2="55.458542"
       y2="39.515846" />
    <linearGradient
       inkscape:collect="always"
       xlink:href="#linearGradient3191"
       id="linearGradient3263"
       gradientUnits="userSpaceOnUse"
       gradientTransform="translate(0,7.8466159e-2)"
       x1="55.458542"
       y1="20.714615"
       x2="55.458542"
       y2="39.515846" />
    <linearGradient
       inkscape:collect="always"
       xlink:href="#linearGradient3183"
       id="linearGradient3267"
       gradientUnits="userSpaceOnUse"
       gradientTransform="translate(0,7.8466159e-2)"
       x1="17.173977"
       y1="9.4695978"
       x2="17.173977"
       y2="39.55246" />
    <radialGradient
       inkscape:collect="always"
       xlink:href="#linearGradient3183"
       id="radialGradient3278"
       cx="56.759567"
       cy="-29.12746"
       fx="56.759567"
       fy="-29.12746"
       r="60.464645"
       gradientTransform="matrix(-0.8740425,-2.041228e-8,0,-0.2817843,106.36985,12.580373)"
       gradientUnits="userSpaceOnUse" />
    <linearGradient
       inkscape:collect="always"
       xlink:href="#linearGradient3183"
       id="linearGradient2411"
       gradientUnits="userSpaceOnUse"
       gradientTransform="translate(0,7.8466159e-2)"
       x1="17.173977"
       y1="9.4695978"
       x2="17.173977"
       y2="39.55246" />
  </defs>
  <g
     inkscape:groupmode="layer"
     id="layer1"
     inkscape:label="layer1"
     style="display:none" />
  <g
     inkscape:groupmode="layer"
     id="layer2"
     inkscape:label="glow"
     style="display:inline" />
  <rect
     ry="6.082026"
     rx="6.0820246"
     y="472.36218"
     x="2125"
     height="50"
     width="0"
     id="rect3415"
     style="opacity:1;fill:#202020;fill-opacity:1;stroke:none;stroke-width:1;stroke-linecap:round;stroke-linejoin:round;stroke-miterlimit:4;stroke-dasharray:none;stroke-dashoffset:1.08779998;stroke-opacity:1" />
  <g
     id="microblog"
     transform="matrix(0.6530477,0,0,0.6720708,-2.0650293,-0.9291095)">
    <rect
       y="20.788033"
       x="3.9109049"
       height="21.098303"
       width="120.92929"
       id="rect3270"
       style="opacity:0.38805973;fill:url(#radialGradient3278);fill-opacity:1;stroke:none;stroke-width:1;stroke-linejoin:round;stroke-miterlimit:4;stroke-dasharray:none;stroke-dashoffset:0;stroke-opacity:1" />
    <path
       id="path3233"
       d="M 19.90625,21 L 19.90625,39.59375 L 25.0625,39.59375 C 28.666912,39.593731 31.314039,38.846954 33,37.34375 C 34.685923,35.848818 35.53123,33.501667 35.53125,30.3125 C 35.531229,27.106711 34.694214,24.753225 33,23.25 C 31.305724,21.746756 28.65029,21 25.0625,21 L 19.90625,21 z M 22.40625,23.0625 L 25.46875,23.0625 C 28.035016,23.062479 29.906092,23.649776 31.09375,24.8125 C 32.28968,25.975223 32.874981,27.804356 32.875,30.3125 C 32.874982,32.804041 32.28968,34.626838 31.09375,35.78125 C 29.906092,36.943953 28.035016,37.53123 25.46875,37.53125 L 22.40625,37.53125 L 22.40625,23.0625 z"
       style="font-size:12.92297554px;font-style:normal;font-weight:bold;fill:url(#linearGradient3267);fill-opacity:1;stroke:none;stroke-width:1px;stroke-linecap:butt;stroke-linejoin:miter;stroke-opacity:1;font-family:Liberation Sans" />
    <path
       id="text2244"
       d="M 3.1621422,2.1749637 L 5.6785982,2.1749637 L 5.6785982,10.035771 L 14.025271,2.1749637 L 17.264267,2.1749637 L 8.0331042,10.845535 L 17.92452,20.774304 L 14.610778,20.774304 L 5.6785982,11.817228 L 5.6785982,20.774304 L 3.1621422,20.774304 L 3.1621422,2.1749637 M 22.421755,4.2429457 L 22.421755,18.706322 L 25.46143,18.706322 C 28.027696,18.706342 29.904648,18.124981 31.092306,16.962258 C 32.288236,15.799535 32.886201,13.964102 32.88622,11.455958 C 32.886201,8.9644167 32.288236,7.1414417 31.092306,5.9870297 C 29.904648,4.8243267 28.027696,4.2429657 25.46143,4.2429457 L 22.421755,4.2429457 M 19.905299,2.1749637 L 25.075244,2.1749637 C 28.679657,2.1749837 31.324835,2.9266057 33.010796,4.4298097 C 34.696719,5.9247417 35.53969,8.2667907 35.53971,11.455958 C 35.53969,14.661747 34.692553,17.016234 32.998339,18.519458 C 31.304065,20.022702 28.663034,20.774304 25.075244,20.774304 L 19.905299,20.774304 L 19.905299,2.1749637 M 39.53862,2.1749637 L 51.298677,2.1749637 L 51.298677,4.2927767 L 42.055076,4.2927767 L 42.055076,9.7990767 L 50.912491,9.7990767 L 50.912491,11.916889 L 42.055076,11.916889 L 42.055076,18.656492 L 51.522913,18.656492 L 51.522913,20.774304 L 39.53862,20.774304 L 39.53862,2.1749637"
       style="font-size:12.92297553999999948px;font-style:normal;font-weight:bold;fill:#ffffff;fill-opacity:1;stroke:none;stroke-width:1px;stroke-linecap:butt;stroke-linejoin:miter;stroke-opacity:1;font-family:Liberation Sans" />
    <path
       id="text2404"
       d="M 52.988495,26.320858 L 56.77581,6.8684027 L 59.103562,6.8684027 L 57.39235,15.638365 C 57.358793,15.814525 57.329434,16.011649 57.304273,16.22974 C 57.279104,16.44784 57.266522,16.665936 57.266526,16.884027 C 57.266522,17.664142 57.509782,18.263904 57.996307,18.683316 C 58.491212,19.102733 59.195828,19.31244 60.110158,19.312438 C 61.351617,19.31244 62.354017,18.960132 63.117361,18.255513 C 63.880685,17.5509 64.396565,16.493976 64.665001,15.084738 L 66.262972,6.8684027 L 68.578141,6.8684027 L 66.476873,17.701886 C 66.443307,17.861266 66.418142,17.999673 66.401378,18.117106 C 66.392977,18.234545 66.388783,18.339399 66.388796,18.431667 C 66.388783,18.691707 66.439113,18.884637 66.539785,19.01046 C 66.64882,19.127898 66.816586,19.186616 67.043083,19.186614 C 67.126952,19.186616 67.240194,19.165645 67.382809,19.123702 C 67.533784,19.081762 67.743491,19.006268 68.011931,18.897218 L 67.659623,20.759419 C 67.290524,20.943962 66.938216,21.082368 66.602697,21.17464 C 66.267153,21.275299 65.94001,21.325629 65.621267,21.325629 C 65.067628,21.325629 64.631437,21.149475 64.312693,20.797166 C 64.002316,20.444859 63.847132,19.958338 63.847143,19.337603 C 63.377388,20.008668 62.815373,20.507771 62.161096,20.834914 C 61.515189,21.162057 60.751855,21.325629 59.871091,21.325629 C 59.090974,21.325629 58.407329,21.14528 57.820153,20.784584 C 57.241357,20.423888 56.85969,19.94995 56.675151,19.362768 L 55.316247,26.320858 L 52.988495,26.320858 M 74.089251,2.1751527 L 80.581791,2.1751527 C 82.343321,2.1751707 83.660278,2.5023147 84.532678,3.1565827 C 85.405048,3.8108867 85.841238,4.7965107 85.841248,6.1134567 C 85.841238,7.3213847 85.463758,8.3657267 84.708828,9.2464847 C 83.962258,10.118878 82.98083,10.64734 81.764541,10.831873 C 82.804676,11.066755 83.584788,11.515528 84.104878,12.178194 C 84.624938,12.840877 84.884968,13.725841 84.884988,14.833089 C 84.884968,16.72046 84.184548,18.213574 82.783719,19.312438 C 81.39125,20.411305 79.482915,20.960738 77.058708,20.960738 L 70.427761,20.960738 L 74.089251,2.1751527 M 74.705791,11.989457 L 73.372052,18.872053 L 77.461346,18.872053 C 78.996394,18.872055 80.179143,18.519747 81.009594,17.815128 C 81.840023,17.110515 82.255244,16.116503 82.255256,14.833089 C 82.255244,13.843277 81.97843,13.121885 81.424815,12.668909 C 80.879565,12.21595 79.998795,11.989466 78.782502,11.989457 L 74.705791,11.989457 M 76.203102,4.2638377 L 75.095847,9.9259367 L 78.883162,9.9259367 C 80.233667,9.9259477 81.286396,9.6323577 82.041355,9.0451657 C 82.804676,8.4579977 83.186348,7.6443337 83.186358,6.6041717 C 83.186348,5.7905227 82.930501,5.1991487 82.418828,4.8300477 C 81.90713,4.4525907 81.089272,4.2638547 79.965252,4.2638377 L 76.203102,4.2638377 M 92.119888,1.3824587 L 94.435058,1.3824587 L 90.622578,20.960738 L 88.307408,20.960738 L 92.119888,1.3824587 M 101.09117,21.325629 C 99.438678,21.325629 98.130098,20.818137 97.165448,19.803154 C 96.209188,18.779784 95.731048,17.387328 95.731048,15.625783 C 95.731048,14.602417 95.894618,13.56227 96.221768,12.505337 C 96.557298,11.440033 96.989298,10.546681 97.517758,9.8252767 C 98.348198,8.7012577 99.275098,7.8708177 100.29848,7.3339537 C 101.32185,6.7971167 102.47943,6.5286917 103.77123,6.5286767 C 105.37339,6.5286917 106.66518,7.0277947 107.64663,8.0259877 C 108.63643,9.0242067 109.13134,10.328585 109.13135,11.939127 C 109.13134,13.054778 108.96777,14.166226 108.64064,15.273474 C 108.31348,16.380734 107.88568,17.299251 107.35723,18.029029 C 106.53517,19.153063 105.61245,19.983503 104.58909,20.520353 C 103.56571,21.057203 102.39974,21.325629 101.09117,21.325629 M 98.134298,15.550288 C 98.134298,16.825313 98.398528,17.781578 98.926988,18.419085 C 99.463838,19.048209 100.27331,19.36277 101.35541,19.362768 C 102.90723,19.36277 104.19064,18.687513 105.20563,17.336995 C 106.22899,15.978096 106.74068,14.258498 106.74069,12.178194 C 106.74068,10.961901 106.46806,10.043384 105.92283,9.4226387 C 105.37758,8.8019167 104.5765,8.4915507 103.51959,8.4915377 C 102.6472,8.4915507 101.87128,8.6970637 101.19183,9.1080777 C 100.51238,9.5107277 99.904228,10.127267 99.367378,10.957697 C 98.973128,11.57844 98.666948,12.28725 98.448858,13.08413 C 98.239148,13.881025 98.134298,14.703077 98.134298,15.550288 M 125.66468,6.8684027 L 123.26144,19.211779 C 122.80007,21.602442 121.9151,23.384953 120.60654,24.559317 C 119.30635,25.733673 117.55319,26.320853 115.34708,26.320858 C 114.53341,26.320853 113.77847,26.257941 113.08224,26.132122 C 112.38601,26.014681 111.73592,25.830138 111.13196,25.578494 L 111.55976,23.326237 C 112.13017,23.695319 112.73412,23.967939 113.37164,24.144096 C 114.00914,24.320247 114.68859,24.408324 115.40999,24.408327 C 116.87794,24.408324 118.08166,24.005686 119.02115,23.200413 C 119.96902,22.403523 120.59395,21.254328 120.89594,19.752824 L 121.09726,18.695899 C 120.45135,19.43407 119.7006,19.996085 118.845,20.381946 C 117.98938,20.767808 117.06667,20.960738 116.07686,20.960738 C 114.65085,20.960738 113.52682,20.490994 112.70477,19.551505 C 111.8911,18.60363 111.48427,17.303445 111.48427,15.650948 C 111.48427,14.350769 111.73172,13.079943 112.22663,11.838468 C 112.72154,10.588622 113.41777,9.4813687 114.31532,8.5167027 C 114.91088,7.8792057 115.60292,7.3884907 116.39142,7.0445577 C 117.1883,6.7006517 118.01874,6.5286917 118.88275,6.5286767 C 119.83061,6.5286917 120.65686,6.7509807 121.36149,7.1955467 C 122.06609,7.6317507 122.59036,8.2524847 122.93429,9.0577477 L 123.33693,6.8684027 L 125.66468,6.8684027 M 122.17935,12.039787 C 122.17933,10.898989 121.91091,10.018219 121.37407,9.3974737 C 120.83721,8.7767527 120.07387,8.4663857 119.08406,8.4663727 C 118.47171,8.4663857 117.88873,8.5880157 117.33511,8.8312637 C 116.78147,9.0745367 116.30753,9.4142617 115.91329,9.8504417 C 115.27577,10.571846 114.77667,11.423257 114.41598,12.404678 C 114.06367,13.377728 113.88751,14.384322 113.88752,15.424464 C 113.88751,16.582053 114.15594,17.471211 114.69279,18.091941 C 115.23803,18.712677 116.01814,19.023044 117.03313,19.023042 C 118.50107,19.023044 119.72576,18.360369 120.7072,17.035016 C 121.68862,15.701283 122.17933,14.036208 122.17935,12.039787"
       style="font-size:25.76884079px;font-style:oblique;font-variant:normal;font-weight:normal;font-stretch:normal;text-align:start;line-height:125%;writing-mode:lr-tb;text-anchor:start;fill:#8b98e4;fill-opacity:1;stroke:none;stroke-width:1px;stroke-linecap:butt;stroke-linejoin:miter;stroke-opacity:1;font-family:DejaVu Sans;-inkscape-font-specification:DejaVu Sans Oblique" />
    <path
       id="path3237"
       d="M 3.1621422,39.603742 L 5.6785982,39.603742 L 5.6785982,31.742935 L 14.025271,39.603742 L 17.264267,39.603742 L 8.0331042,30.933171 L 17.92452,21.004401 L 14.610778,21.004401 L 5.6785982,29.961478 L 5.6785982,21.004401 L 3.1621422,21.004401 L 3.1621422,39.603742"
       style="font-size:12.92297554px;font-style:normal;font-weight:bold;fill:url(#linearGradient2411);fill-opacity:1;stroke:none;stroke-width:1px;stroke-linecap:butt;stroke-linejoin:miter;stroke-opacity:1;font-family:Liberation Sans" />
    <path
       id="path3179"
       d="M 39.53862,39.603742 L 51.298677,39.603742 L 51.298677,37.485929 L 42.055076,37.485929 L 42.055076,31.979629 L 50.912491,31.979629 L 50.912491,29.861817 L 42.055076,29.861817 L 42.055076,23.122213 L 51.522913,23.122213 L 51.522913,21.004401 L 39.53862,21.004401 L 39.53862,39.603742"
       style="font-size:12.92297554px;font-style:normal;font-weight:bold;fill:url(#linearGradient3211);fill-opacity:1;stroke:none;stroke-width:1px;stroke-linecap:butt;stroke-linejoin:miter;stroke-opacity:1;font-family:Liberation Sans" />
    <path
       id="path3229"
       d="M 52.988495,26.08291 L 56.77581,45.535366 L 59.103562,45.535366 L 57.39235,36.765404 C 57.358793,36.589244 57.329434,36.39212 57.304273,36.174029 C 57.279104,35.955929 57.266522,35.737833 57.266526,35.519742 C 57.266522,34.739627 57.509782,34.139864 57.996307,33.720452 C 58.491212,33.301035 59.195828,33.091328 60.110158,33.09133 C 61.351617,33.091328 62.354017,33.443636 63.117361,34.148255 C 63.880685,34.852869 64.396565,35.909793 64.665001,37.319031 L 66.262972,45.535366 L 68.578141,45.535366 L 66.476873,34.701883 C 66.443307,34.542502 66.418142,34.404095 66.401378,34.286662 C 66.392977,34.169223 66.388783,34.064369 66.388796,33.972101 C 66.388783,33.712061 66.439113,33.519131 66.539785,33.393308 C 66.64882,33.27587 66.816586,33.217152 67.043083,33.217154 C 67.126952,33.217152 67.240194,33.238123 67.382809,33.280066 C 67.533784,33.322006 67.743491,33.3975 68.011931,33.50655 L 67.659623,31.644349 C 67.290524,31.459806 66.938216,31.3214 66.602697,31.229128 C 66.267153,31.128469 65.94001,31.078139 65.621267,31.078139 C 65.067628,31.078139 64.631437,31.254293 64.312693,31.606602 C 64.002316,31.958909 63.847132,32.44543 63.847143,33.066165 C 63.377388,32.3951 62.815373,31.895997 62.161096,31.568854 C 61.515189,31.241711 60.751855,31.078139 59.871091,31.078139 C 59.090974,31.078139 58.407329,31.258488 57.820153,31.619184 C 57.241357,31.97988 56.85969,32.453818 56.675151,33.041 L 55.316247,26.08291 L 52.988495,26.08291"
       style="font-size:25.76884079px;font-style:oblique;font-variant:normal;font-weight:normal;font-stretch:normal;text-align:start;line-height:125%;writing-mode:lr-tb;text-anchor:start;fill:url(#linearGradient3253);fill-opacity:1;stroke:none;stroke-width:1px;stroke-linecap:butt;stroke-linejoin:miter;stroke-opacity:1;font-family:DejaVu Sans;-inkscape-font-specification:DejaVu Sans Oblique" />
    <path
       id="path3227"
       d="M 70.4375,20.8125 L 74.09375,39.59375 L 80.59375,39.59375 C 82.355276,39.593731 83.65885,39.279268 84.53125,38.625 C 85.403621,37.970695 85.84374,36.973196 85.84375,35.65625 C 85.84374,34.448322 85.47368,33.412008 84.71875,32.53125 C 83.972176,31.658855 82.966289,31.122033 81.75,30.9375 C 82.790134,30.702618 83.57366,30.256416 84.09375,29.59375 C 84.613807,28.931067 84.87498,28.044748 84.875,26.9375 C 84.874981,25.050128 84.182079,23.567614 82.78125,22.46875 C 81.388778,21.369883 79.486707,20.8125 77.0625,20.8125 L 70.4375,20.8125 z M 73.375,22.90625 L 77.46875,22.90625 C 79.003795,22.906248 80.169549,23.264131 81,23.96875 C 81.830425,24.673364 82.249988,25.654086 82.25,26.9375 C 82.249987,27.927311 81.991115,28.672024 81.4375,29.125 C 80.892253,29.577959 79.997543,29.781241 78.78125,29.78125 L 74.71875,29.78125 L 73.375,22.90625 z M 75.09375,31.84375 L 78.875,31.84375 C 80.225504,31.843738 81.276291,32.131558 82.03125,32.71875 C 82.794575,33.305918 83.18749,34.147338 83.1875,35.1875 C 83.187492,36.001149 82.917923,36.568399 82.40625,36.9375 C 81.894549,37.314957 81.09277,37.499983 79.96875,37.5 L 76.1875,37.5 L 75.09375,31.84375 z"
       style="font-size:25.76884079px;font-style:oblique;font-variant:normal;font-weight:normal;font-stretch:normal;text-align:start;line-height:125%;writing-mode:lr-tb;text-anchor:start;fill:url(#linearGradient3259);fill-opacity:1;stroke:none;stroke-width:1px;stroke-linecap:butt;stroke-linejoin:miter;stroke-opacity:1;font-family:DejaVu Sans;-inkscape-font-specification:DejaVu Sans Oblique" />
    <path
       id="path3221"
       d="M 92.119888,40.396247 L 94.435058,40.396247 L 90.622578,20.817967 L 88.307408,20.817967 L 92.119888,40.396247"
       style="font-size:25.76884079px;font-style:oblique;font-variant:normal;font-weight:normal;font-stretch:normal;text-align:start;line-height:125%;writing-mode:lr-tb;text-anchor:start;fill:url(#linearGradient3261);fill-opacity:1;stroke:none;stroke-width:1px;stroke-linecap:butt;stroke-linejoin:miter;stroke-opacity:1;font-family:DejaVu Sans;-inkscape-font-specification:DejaVu Sans Oblique" />
    <path
       id="path3219"
       d="M 101.09375,20.4375 C 99.441257,20.437501 98.1209,20.953767 97.15625,21.96875 C 96.199987,22.992119 95.71875,24.394705 95.71875,26.15625 C 95.718749,27.179615 95.8916,28.224317 96.21875,29.28125 C 96.554277,30.346554 97.00279,31.247346 97.53125,31.96875 C 98.361687,33.09277 99.289118,33.900636 100.3125,34.4375 C 101.33587,34.974337 102.48945,35.249985 103.78125,35.25 C 105.38341,35.249983 106.6748,34.748193 107.65625,33.75 C 108.64605,32.751779 109.12499,31.454292 109.125,29.84375 C 109.12499,28.728099 108.98338,27.607248 108.65625,26.5 C 108.32909,25.39274 107.8722,24.479779 107.34375,23.75 C 106.52169,22.625966 105.61711,21.78685 104.59375,21.25 C 103.57037,20.71315 102.40232,20.4375 101.09375,20.4375 z M 101.34375,22.40625 C 102.89557,22.406248 104.20376,23.086981 105.21875,24.4375 C 106.24211,25.796399 106.74999,27.513446 106.75,29.59375 C 106.74999,30.810043 106.48273,31.723005 105.9375,32.34375 C 105.39225,32.964471 104.58816,33.281237 103.53125,33.28125 C 102.65886,33.281238 101.86695,33.067264 101.1875,32.65625 C 100.50805,32.2536 99.91185,31.64293 99.375,30.8125 C 98.98075,30.191757 98.65559,29.48438 98.4375,28.6875 C 98.227788,27.890605 98.125,27.065961 98.125,26.21875 C 98.124998,24.943725 98.40904,24.012507 98.9375,23.375 C 99.474351,22.745877 100.26165,22.406248 101.34375,22.40625 z"
       style="font-size:25.76884079px;font-style:oblique;font-variant:normal;font-weight:normal;font-stretch:normal;text-align:start;line-height:125%;writing-mode:lr-tb;text-anchor:start;fill:url(#linearGradient3263);fill-opacity:1;stroke:none;stroke-width:1px;stroke-linecap:butt;stroke-linejoin:miter;stroke-opacity:1;font-family:DejaVu Sans;-inkscape-font-specification:DejaVu Sans Oblique" />
    <path
       id="path3215"
       d="M 115.34375,26.239362 C 114.53008,26.239367 113.78998,26.301043 113.09375,26.426862 C 112.39752,26.544303 111.72896,26.706468 111.125,26.958112 L 111.5625,29.208112 C 112.13291,28.839029 112.73748,28.571769 113.375,28.395612 C 114.0125,28.219461 114.68485,28.145615 115.40625,28.145612 C 116.8742,28.145615 118.09176,28.559089 119.03125,29.364362 C 119.97912,30.161251 120.60426,31.300358 120.90625,32.801862 L 121.09375,33.864362 C 120.44784,33.126191 119.69935,32.562723 118.84375,32.176862 C 117.98813,31.791 117.05231,31.583112 116.0625,31.583112 C 114.63649,31.583113 113.5408,32.049873 112.71875,32.989362 C 111.90508,33.937237 111.46875,35.243115 111.46875,36.895612 C 111.46875,38.195791 111.72384,39.466637 112.21875,40.708112 C 112.71366,41.957957 113.41495,43.055946 114.3125,44.020612 C 114.90806,44.658107 115.61775,45.145429 116.40625,45.489362 C 117.20313,45.83327 118.01099,46.020597 118.875,46.020612 C 119.82286,46.020595 120.67037,45.808928 121.375,45.364362 C 122.0796,44.928157 122.59357,44.294625 122.9375,43.489362 L 123.34375,45.676862 L 125.65625,45.676862 L 123.25,33.333112 C 122.78863,30.94245 121.90231,29.163726 120.59375,27.989362 C 119.29356,26.815007 117.54986,26.239367 115.34375,26.239362 z M 117.03125,33.520612 C 118.49919,33.52061 119.73731,34.195258 120.71875,35.520612 C 121.70017,36.854345 122.18748,38.524191 122.1875,40.520612 C 122.18748,41.661411 121.91184,42.524867 121.375,43.145612 C 120.83814,43.766332 120.08356,44.083099 119.09375,44.083112 C 118.4814,44.0831 117.89737,43.95136 117.34375,43.708112 C 116.79011,43.46484 116.30049,43.144292 115.90625,42.708112 C 115.26873,41.986707 114.76694,41.127033 114.40625,40.145612 C 114.05394,39.172563 113.87499,38.154504 113.875,37.114362 C 113.87499,35.956773 114.15065,35.078843 114.6875,34.458112 C 115.23274,33.837376 116.01626,33.52061 117.03125,33.520612 z"
       style="font-size:25.76884079px;font-style:oblique;font-variant:normal;font-weight:normal;font-stretch:normal;text-align:start;line-height:125%;writing-mode:lr-tb;text-anchor:start;fill:url(#linearGradient3255);fill-opacity:1;stroke:none;stroke-width:1px;stroke-linecap:butt;stroke-linejoin:miter;stroke-opacity:1;font-family:DejaVu Sans;-inkscape-font-specification:DejaVu Sans Oblique" />
  </g>
</svg>
