<?xml version="1.0" encoding="UTF-8" standalone="no"?>
<!-- Created with Inkscape (http://www.inkscape.org/) -->

<svg
   xmlns:dc="http://purl.org/dc/elements/1.1/"
   xmlns:cc="http://creativecommons.org/ns#"
   xmlns:rdf="http://www.w3.org/1999/02/22-rdf-syntax-ns#"
   xmlns:svg="http://www.w3.org/2000/svg"
   xmlns="http://www.w3.org/2000/svg"
   xmlns:xlink="http://www.w3.org/1999/xlink"
   xmlns:sodipodi="http://sodipodi.sourceforge.net/DTD/sodipodi-0.dtd"
   xmlns:inkscape="http://www.inkscape.org/namespaces/inkscape"
   id="svg11324"
   sodipodi:version="0.32"
   inkscape:version="0.48.2 r9819"
   width="17.459999"
   height="17.459999"
   version="1.0"
   sodipodi:docname="pager.svgz"
   inkscape:output_extension="org.inkscape.output.svgz.inkscape">
  <metadata
     id="metadata11329">
    <rdf:RDF>
      <cc:Work
         rdf:about="">
        <dc:format>image/svg+xml</dc:format>
        <dc:type
           rdf:resource="http://purl.org/dc/dcmitype/StillImage" />
      </cc:Work>
      <cc:Work
         rdf:about="">
        <dc:format>image/svg+xml</dc:format>
        <dc:type
           rdf:resource="http://purl.org/dc/dcmitype/StillImage" />
      </cc:Work>
      <cc:Work
         rdf:about="">
        <dc:format>image/svg+xml</dc:format>
        <dc:type
           rdf:resource="http://purl.org/dc/dcmitype/StillImage" />
      </cc:Work>
    </rdf:RDF>
  </metadata>
  <defs
     id="defs11327">
    <linearGradient
       id="linearGradient3253">
      <stop
         style="stop-color:#ffffff;stop-opacity:0.69411767;"
         offset="0"
         id="stop3255" />
      <stop
         style="stop-color:#4d4d4d;stop-opacity:0.32156864;"
         offset="1"
         id="stop3257" />
    </linearGradient>
    <linearGradient
       id="linearGradient3245">
      <stop
         style="stop-color:#ffffff;stop-opacity:1;"
         offset="0"
         id="stop3247" />
      <stop
         style="stop-color:#646464;stop-opacity:0.27391306;"
         offset="1"
         id="stop3249" />
    </linearGradient>
    <linearGradient
       id="linearGradient3231">
      <stop
         id="stop3233"
         offset="0"
         style="stop-color:#000000;stop-opacity:0.3137255;" />
      <stop
         id="stop3235"
         offset="1"
         style="stop-color:#464646;stop-opacity:0.33333334;" />
    </linearGradient>
    <linearGradient
       id="linearGradient3221">
      <stop
         style="stop-color:#000000;stop-opacity:1;"
         offset="0"
         id="stop3223" />
      <stop
         style="stop-color:#000000;stop-opacity:0;"
         offset="1"
         id="stop3225" />
    </linearGradient>
    <inkscape:perspective
       sodipodi:type="inkscape:persp3d"
       inkscape:vp_x="-50 : 600 : 1"
       inkscape:vp_y="0 : 1000 : 0"
       inkscape:vp_z="700 : 600 : 1"
       inkscape:persp3d-origin="300 : 400 : 1"
       id="perspective100" />
    <linearGradient
       id="linearGradient4261"
       inkscape:collect="always">
      <stop
         offset="0"
         style="stop-color:#ffffff;stop-opacity:1;"
         id="stop4263" />
      <stop
         offset="1"
         style="stop-color:#ffffff;stop-opacity:0;"
         id="stop4265" />
    </linearGradient>
    <linearGradient
       inkscape:collect="always"
       xlink:href="#linearGradient3372"
       id="linearGradient2356"
       gradientUnits="userSpaceOnUse"
       gradientTransform="matrix(0.2857143,0,0,0.07575758,15.425088,-25.70633)"
       x1="50.10762"
       y1="89.277901"
       x2="50.10762"
       y2="9.2778997" />
    <linearGradient
       inkscape:collect="always"
       xlink:href="#linearGradient3372"
       id="linearGradient2342"
       gradientUnits="userSpaceOnUse"
       gradientTransform="matrix(-0.1428571,0,0,0.07575758,13.471208,-25.70633)"
       x1="50.10762"
       y1="89.277901"
       x2="50.10762"
       y2="9.2778997" />
    <linearGradient
       inkscape:collect="always"
       xlink:href="#linearGradient3372"
       id="linearGradient10781"
       gradientUnits="userSpaceOnUse"
       gradientTransform="matrix(0.2857143,0,0,0.09090911,14.969236,-19.142327)"
       x1="50.10762"
       y1="89.277901"
       x2="50.10762"
       y2="9.2778997" />
    <linearGradient
       inkscape:collect="always"
       xlink:href="#linearGradient3372"
       id="linearGradient10787"
       gradientUnits="userSpaceOnUse"
       gradientTransform="matrix(0.1428571,0,0,0.09090911,19.984606,-19.142327)"
       x1="50.10762"
       y1="89.277901"
       x2="50.10762"
       y2="9.2778997" />
    <linearGradient
       inkscape:collect="always"
       xlink:href="#linearGradient3372"
       id="linearGradient11088"
       gradientUnits="userSpaceOnUse"
       gradientTransform="matrix(0.7142857,0,0,0.1060606,29.923127,13.16754)"
       x1="50.10762"
       y1="89.277901"
       x2="50.10762"
       y2="9.2778997" />
    <linearGradient
       inkscape:collect="always"
       id="linearGradient7175">
      <stop
         id="stop7177"
         style="stop-color:#ffffff;stop-opacity:1;"
         offset="0" />
      <stop
         id="stop7179"
         style="stop-color:#ffffff;stop-opacity:0;"
         offset="1" />
    </linearGradient>
    <linearGradient
       inkscape:collect="always"
       xlink:href="#linearGradient3372"
       id="linearGradient11067"
       gradientUnits="userSpaceOnUse"
       gradientTransform="matrix(0.2857143,0,0,0.1060607,15.425088,-34.227621)"
       x1="50.10762"
       y1="89.277901"
       x2="50.10762"
       y2="9.2778997" />
    <linearGradient
       inkscape:collect="always"
       xlink:href="#linearGradient3372"
       id="linearGradient11071"
       gradientUnits="userSpaceOnUse"
       gradientTransform="matrix(0.1428571,0,0,0.1060607,20.440458,-34.227621)"
       x1="50.10762"
       y1="89.277901"
       x2="50.10762"
       y2="9.2778997" />
    <linearGradient
       inkscape:collect="always"
       xlink:href="#linearGradient3372"
       id="linearGradient11075"
       gradientUnits="userSpaceOnUse"
       gradientTransform="matrix(0.7142857,0,0,0.1060607,30.378964,-34.227621)"
       x1="50.10762"
       y1="89.277901"
       x2="50.10762"
       y2="9.2778997" />
    <linearGradient
       id="linearGradient3372">
      <stop
         offset="0"
         style="stop-color:#000000;stop-opacity:1;"
         id="stop3374" />
      <stop
         offset="0.29032257"
         style="stop-color:#0c0c0c;stop-opacity:1;"
         id="stop3376" />
      <stop
         offset="1"
         style="stop-color:#222222;stop-opacity:1;"
         id="stop3378" />
    </linearGradient>
    <linearGradient
       id="linearGradient7231">
      <stop
         id="stop7233"
         style="stop-color:#282828;stop-opacity:0.46956521;"
         offset="0" />
      <stop
         id="stop7235"
         style="stop-color:#7c7c7c;stop-opacity:0.46956521;"
         offset="1" />
    </linearGradient>
    <linearGradient
       inkscape:collect="always"
       xlink:href="#linearGradient7231"
       id="linearGradient2259"
       gradientUnits="userSpaceOnUse"
       gradientTransform="matrix(0.03447966,0,0,0.185218,22.814565,-132.62)"
       x1="208"
       y1="797.00684"
       x2="208"
       y2="759.90039" />
    <radialGradient
       inkscape:collect="always"
       xlink:href="#linearGradient4261"
       id="radialGradient2261"
       gradientUnits="userSpaceOnUse"
       gradientTransform="matrix(0.08862667,-4.9486619e-7,8.4734725e-7,0.1538258,12.769257,-107.01925)"
       cx="185.50665"
       cy="796.50342"
       fx="185.50665"
       fy="796.50342"
       r="72.506653" />
    <linearGradient
       inkscape:collect="always"
       xlink:href="#linearGradient7231"
       id="linearGradient4271"
       gradientUnits="userSpaceOnUse"
       gradientTransform="matrix(0.03447966,0,0,0.183966,23.10379,-133.62218)"
       x1="208"
       y1="797.00684"
       x2="208"
       y2="759.90039" />
    <linearGradient
       inkscape:collect="always"
       xlink:href="#linearGradient7175"
       id="linearGradient3255"
       gradientUnits="userSpaceOnUse"
       gradientTransform="matrix(0.03447966,0,0,-0.185218,23.103792,155.61785)"
       x1="208"
       y1="796.99933"
       x2="208"
       y2="779.31116" />
    <linearGradient
       inkscape:collect="always"
       xlink:href="#linearGradient7175"
       id="linearGradient3259"
       gradientUnits="userSpaceOnUse"
       gradientTransform="matrix(0.03447966,0,0,-0.185218,17.103792,168.61785)"
       x1="208"
       y1="796.99933"
       x2="208"
       y2="779.31116" />
    <linearGradient
       inkscape:collect="always"
       xlink:href="#linearGradient7175"
       id="linearGradient3265"
       gradientUnits="userSpaceOnUse"
       gradientTransform="matrix(0.03447966,0,0,-0.185218,27.103792,168.61785)"
       x1="208"
       y1="796.99933"
       x2="208"
       y2="779.31116" />
    <linearGradient
       inkscape:collect="always"
       xlink:href="#linearGradient3221"
       id="linearGradient3227"
       x1="30"
       y1="13"
       x2="30"
       y2="8"
       gradientUnits="userSpaceOnUse" />
    <linearGradient
       inkscape:collect="always"
       xlink:href="#linearGradient3231"
       id="linearGradient3229"
       gradientUnits="userSpaceOnUse"
       x1="30"
       y1="-8"
       x2="30"
       y2="-13"
       gradientTransform="translate(0,3.9705005)" />
    <linearGradient
       inkscape:collect="always"
       xlink:href="#linearGradient3253"
       id="linearGradient3260"
       x1="23.499996"
       y1="20.997854"
       x2="23.499996"
       y2="26"
       gradientUnits="userSpaceOnUse" />
    <linearGradient
       inkscape:collect="always"
       xlink:href="#linearGradient3253"
       id="linearGradient3262"
       gradientUnits="userSpaceOnUse"
       x1="23.499996"
       y1="-20.997854"
       x2="23.499996"
       y2="-26"
       gradientTransform="translate(0,0.09117036)" />
  </defs>
  <sodipodi:namedview
     inkscape:window-height="709"
     inkscape:window-width="1366"
     inkscape:pageshadow="2"
     inkscape:pageopacity="0"
     guidetolerance="10.0"
     gridtolerance="10.0"
     objecttolerance="10.0"
     borderopacity="1.0"
     bordercolor="#666666"
     pagecolor="#404040"
     id="base"
     showgrid="true"
     inkscape:zoom="22.627417"
     inkscape:cx="10.365441"
     inkscape:cy="7.432381"
     inkscape:window-x="0"
     inkscape:window-y="-3"
     inkscape:current-layer="svg11324"
     width="50px"
     height="50px"
     inkscape:grid-points="true"
     inkscape:window-maximized="1"
     fit-margin-top="0"
     fit-margin-left="0"
     fit-margin-right="0"
     fit-margin-bottom="0">
    <inkscape:grid
       type="xygrid"
       id="grid3261"
       empspacing="5"
       visible="true"
       enabled="true"
       snapvisiblegridlinesonly="true" />
    <inkscape:grid
       type="xygrid"
       id="grid3068"
       empspacing="5"
       visible="true"
       enabled="true"
       snapvisiblegridlinesonly="true"
       spacingx="0.1px"
       spacingy="0.1px" />
  </sodipodi:namedview>
  <path
     id="left"
     d="m 7.4558385,-24.39743 0,4.999999 2,0 0,-4.999999 -2,0 z"
     style="opacity:0;fill:url(#linearGradient2356);fill-opacity:1;stroke:none"
     inkscape:connector-curvature="0" />
  <path
     style="opacity:0;fill:url(#linearGradient2342);fill-opacity:1;stroke:none"
     d="m 17.455838,-24.39743 0,4.999999 -1,0 0,-4.999999 1,0 z"
     id="right"
     inkscape:connector-curvature="0" />
  <rect
     style="opacity:0.875;fill:#008000;fill-opacity:1;stroke:none"
     id="hint-stretch-borders"
     width="1"
     height="0.99414408"
     x="14.99999"
     y="1.4342083" />
  <path
     style="opacity:0;fill:url(#linearGradient10781);fill-opacity:1;stroke:none"
     d="m 6.9999865,-17.571647 0,6 2,0 0,-6 -2,0 z"
     id="bottomleft"
     inkscape:label="#normal-bottomleft"
     inkscape:connector-curvature="0" />
  <path
     inkscape:label="#normal-bottomright"
     id="bottomright"
     d="m 15.999986,-17.571647 0,6 1,0 0,-6 -1,0 z"
     style="opacity:0;fill:url(#linearGradient10787);fill-opacity:1;stroke:none"
     inkscape:connector-curvature="0" />
  <rect
     height="5.0021462"
     x="10.455844"
     y="-23.389307"
     width="5.0000095"
     id="center"
     style="opacity:0;fill:#828282;fill-opacity:0.70700642;stroke:none" />
  <g
     id="bottom"
     transform="translate(-9.5367432e-6,-33.571646)">
    <path
       style="opacity:0;fill:url(#linearGradient11088);fill-opacity:1;stroke:none"
       d="m 10,15 0,7 5,0 0,-7 -5,0 z"
       id="path11057"
       inkscape:label="#normal-bottomleft"
       inkscape:connector-curvature="0" />
    <rect
       height="1.0068054"
       x="10"
       y="16"
       width="5"
       id="rect7173"
       style="opacity:0;fill:#ababab;fill-opacity:1;stroke:none" />
  </g>
  <path
     inkscape:label="#normal-topleft"
     id="topleft"
     d="m 7.4558385,-32.395161 0,7 2,0 0,-7 -2,0 z"
     style="opacity:0;fill:url(#linearGradient11067);fill-opacity:1;stroke:none"
     inkscape:connector-curvature="0" />
  <path
     style="opacity:0;fill:url(#linearGradient11071);fill-opacity:1;stroke:none"
     d="m 16.455838,-32.395161 0,7 1,0 0,-7 -1,0 z"
     id="topright"
     inkscape:label="#normal-topright"
     inkscape:connector-curvature="0" />
  <path
     style="opacity:0;fill:url(#linearGradient11075);fill-opacity:1;stroke:none"
     d="m 10.455838,-32.395161 0,7 5,0 0,-7 -5,0 z"
     id="top"
     inkscape:label="#normal-top"
     inkscape:connector-curvature="0" />
  <path
     style="opacity:0.4;fill:#8c8c8c;fill-opacity:1;stroke:none"
     d="m 0,2.4599991 0,4.999999 0.99999996,0 0,-4.999999 -0.99999996,0 z"
     id="normal-left"
     inkscape:connector-curvature="0" />
  <path
     id="normal-right"
     d="m 7,2.4599991 0,4.999999 -1,0 0,-4.999999 1,0 z"
     style="opacity:0.4;fill:#8c8c8c;fill-opacity:1;stroke:none"
     inkscape:connector-curvature="0" />
  <path
     inkscape:label="#normal-bottomleft"
     id="normal-bottomleft"
     d="m 0,7.4599991 c 0,0 0,0.5 0,0.703125 0,0.203125 0.1,0.296875 0.3,0.296875 0.2,0 0.69999996,0 0.69999996,0 l 0,-1 z"
     style="opacity:0.4;fill:#8c8c8c;fill-opacity:1;stroke:none"
     inkscape:connector-curvature="0"
     sodipodi:nodetypes="czzccc" />
  <path
     style="opacity:0.4;fill:#8c8c8c;fill-opacity:1;stroke:none"
     d="m 6,7.4599991 0,1 c 0,0 0.5,0 0.7,0 0.2,0 0.3,-0.1 0.3,-0.3 0,-0.2 0,-0.7 0,-0.7 z"
     id="normal-bottomright"
     inkscape:label="#normal-bottomright"
     inkscape:connector-curvature="0"
     sodipodi:nodetypes="cczzcc" />
  <rect
     height="0.99999994"
     x="1"
     y="7.46"
     width="5"
     id="normal-bottom"
     style="opacity:0.4;fill:#8c8c8c;fill-opacity:1;stroke:none" />
  <path
     style="opacity:0.4;fill:#8c8c8c;fill-opacity:1;stroke:none"
     d="m 0,1.7599991 c 0,0.2 0,0.7 0,0.7 l 0.99999996,0 0,-1 c 0,0 -0.48281246,0 -0.69140621,0 C 0.1,1.4599991 0,1.5599991 0,1.7599991 z"
     id="normal-topleft"
     inkscape:label="#normal-topleft"
     inkscape:connector-curvature="0"
     sodipodi:nodetypes="zccczz" />
  <path
     inkscape:label="#normal-topright"
     id="normal-topright"
     d="m 6,1.4599991 0,1 1,0 c 0,0 0,-0.5 0,-0.7 0,-0.2 -0.1,-0.3 -0.3,-0.3 -0.2,0 -0.7,0 -0.7,0 z"
     style="opacity:0.4;fill:#8c8c8c;fill-opacity:1;stroke:none"
     inkscape:connector-curvature="0"
     sodipodi:nodetypes="ccczzc" />
  <path
     inkscape:label="#normal-top"
     id="normal-top"
     d="m 0.99999996,1.4599991 0,1 5.00000004,0 0,-1 -5.00000004,0 z"
     style="opacity:0.4;fill:#8c8c8c;fill-opacity:1;stroke:none"
     inkscape:connector-curvature="0" />
  <path
     id="hover-left"
     d="m 0,11.46 0,4.999999 0.99999999,0 0,-4.999999 L 0,11.46 z"
     style="opacity:0.4;fill:#aaaaaa;fill-opacity:1;stroke:none"
     inkscape:connector-curvature="0" />
  <path
     style="opacity:0.4;fill:#aaaaaa;fill-opacity:1;stroke:none"
     d="m 7,11.46 0,4.999999 -1,0 0,-4.999999 1,0 z"
     id="hover-right"
     inkscape:connector-curvature="0" />
  <path
     style="opacity:0.4;fill:#aaaaaa;fill-opacity:1;stroke:none"
     d="m 0,16.46 c 0,0 0,0.499999 0,0.703124 0,0.203125 0.1,0.296875 0.3,0.296875 0.2,0 0.69999999,1e-6 0.69999999,1e-6 l 0,-1 z"
     id="hover-bottomleft"
     inkscape:label="#normal-bottomleft"
     inkscape:connector-curvature="0"
     sodipodi:nodetypes="czzccc" />
  <path
     inkscape:label="#normal-bottomright"
     id="hover-bottomright"
     d="m 6,16.46 0,1 c 0,0 0.4984375,10e-7 0.6992188,0 C 6.9,17.459999 7,17.359999 7,17.159999 7,16.959999 7,16.46 7,16.46 z"
     style="opacity:0.4;fill:#aaaaaa;fill-opacity:1;stroke:none"
     inkscape:connector-curvature="0"
     sodipodi:nodetypes="cczzcc" />
  <rect
     style="opacity:0.4;fill:#aaaaaa;fill-opacity:1;stroke:none"
     id="hover-bottom"
     width="5"
     y="16.459999"
     x="1"
     height="1" />
  <path
     inkscape:label="#normal-topleft"
     id="hover-topleft"
     d="M 0,10.759999 C 0,10.993333 0,11.46 0,11.46 l 0.99999999,0 0,-1 c 0,0 -0.47499999,10e-7 -0.68749999,0 C 0.1,10.459999 0,10.559999 0,10.759999 z"
     style="opacity:0.4;fill:#aaaaaa;fill-opacity:1;stroke:none"
     inkscape:connector-curvature="0"
     sodipodi:nodetypes="sccczs" />
  <path
     style="opacity:0.4;fill:#aaaaaa;fill-opacity:1;stroke:none"
     d="m 6,10.46 0,1 1,0 c 0,0 0,-0.490626 0,-0.695313 0,-0.204688 -0.1,-0.304688 -0.3,-0.304688 -0.2,0 -0.7,1e-6 -0.7,1e-6 z"
     id="hover-topright"
     inkscape:label="#normal-topright"
     inkscape:connector-curvature="0"
     sodipodi:nodetypes="ccczzc" />
  <path
     style="opacity:0.4;fill:#aaaaaa;fill-opacity:1;stroke:none"
     d="m 0.99999999,10.46 0,1 L 6,11.46 l 0,-1 -5.00000001,0 z"
     id="hover-top"
     inkscape:label="#normal-top"
     inkscape:connector-curvature="0" />
  <path
     id="active-left"
     d="m 8.9999905,11.459999 0,4.999999 1,0 0,-4.999999 -1,0 z"
     style="opacity:0.75;fill:#a0a0a0;fill-opacity:1;stroke:none"
     inkscape:connector-curvature="0" />
  <path
     style="opacity:0.75;fill:#a0a0a0;fill-opacity:1;stroke:none"
     d="m 15.99999,11.459999 0,4.999999 -1,0 0,-4.999999 1,0 z"
     id="active-right"
     inkscape:connector-curvature="0" />
  <path
     style="opacity:0.75;fill:#a0a0a0;fill-opacity:1;stroke:none"
     d="m 8.9999905,16.459999 c 0,0 9.5e-6,0.5 0,0.707031 C 8.999981,17.374062 9.1,17.459999 9.3,17.459999 c 0.2,0 0.6999905,0 0.6999905,0 l 0,-1 z"
     id="active-bottomleft"
     inkscape:label="#normal-bottomleft"
     inkscape:connector-curvature="0"
     sodipodi:nodetypes="czzccc" />
  <path
     inkscape:label="#normal-bottomright"
     id="active-bottomright"
     d="m 14.99999,16.459999 0,1 c 0,0 0.50001,0 0.70001,0 0.2,0 0.3,-0.1 0.29999,-0.296875 -10e-6,-0.196875 0,-0.703125 0,-0.703125 z"
     style="opacity:0.75;fill:#a0a0a0;fill-opacity:1;stroke:none"
     inkscape:connector-curvature="0"
     sodipodi:nodetypes="cczzcc" />
  <rect
     style="opacity:0.75;fill:#a0a0a0;fill-opacity:1;stroke:none"
     id="active-bottom"
     width="5"
     y="16.459997"
     x="9.9999905"
     height="1" />
  <path
     inkscape:label="#normal-topleft"
     id="active-topleft"
     d="m 9.3,10.459999 c -0.2,0 -0.3,0.1 -0.3000095,0.308594 -9.5e-6,0.208594 0,0.691406 0,0.691406 l 1,0 0,-1 c 0,0 -0.4999905,0 -0.6999905,0 z"
     style="opacity:0.75;fill:#a0a0a0;fill-opacity:1;stroke:none"
     inkscape:connector-curvature="0"
     sodipodi:nodetypes="zzcccz" />
  <path
     style="opacity:0.75;fill:#a0a0a0;fill-opacity:1;stroke:none"
     d="m 14.99999,10.459999 0,1 1,0 c 0,0 4e-6,-0.498437 7e-6,-0.699219 C 16,10.559999 15.9,10.459999 15.7,10.459999 c -0.2,0 -0.70001,0 -0.70001,0 z"
     id="active-topright"
     inkscape:label="#normal-topright"
     inkscape:connector-curvature="0"
     sodipodi:nodetypes="ccczzc" />
  <path
     style="opacity:0.75;fill:#a0a0a0;fill-opacity:1;stroke:none"
     d="m 9.9999905,10.459999 0,1 4.9999995,0 0,-1 -4.9999995,0 z"
     id="active-top"
     inkscape:label="#normal-top"
     inkscape:connector-curvature="0" />
  <g
     id="normal-center"
     style="opacity:0.9;fill:url(#linearGradient3227);fill-opacity:1"
     transform="translate(-26,-1.5695004)">
    <rect
       transform="scale(1,-1)"
       height="5.0021462"
       x="26.99999"
       y="-9.0295"
       width="5.0000095"
       id="rect2274"
       style="opacity:0.65899999;fill:url(#linearGradient3229);fill-opacity:1;stroke:none" />
  </g>
  <g
     id="active-center"
     style="fill:#b8b8b8;fill-opacity:0.60392157"
     inkscape:label="#hover-center"
     transform="translate(-11.00001,-9.5400003)">
    <rect
       style="opacity:0.38020833;fill:#b8b8b8;fill-opacity:0.60392157;stroke:none"
       id="rect2268"
       width="5.0000095"
       y="-26"
       x="20.99999"
       height="5.0021462"
       transform="scale(1,-1)" />
  </g>
  <g
     id="hover-center"
     style="fill:#f2f2f2;fill-opacity:0.9"
     transform="matrix(0.99999825,0,0,0.99957093,-19.999954,-9.4377134)"
     inkscape:label="#g3232">
    <rect
       style="opacity:0.25;fill:#f2f2f2;fill-opacity:0.9;stroke:none"
       id="rect3235"
       width="5.0000095"
       y="-25.908829"
       x="20.99999"
       height="5.0021462"
       transform="scale(1,-1)" />
  </g>
</svg>
