<?xml version="1.0" encoding="UTF-8" standalone="no"?>
<!-- Generator: Adobe Illustrator 12.0.0, SVG Export Plug-In . SVG Version: 6.00 Build 51448)  -->
<svg
   xmlns:ns="http://ns.adobe.com/SaveForWeb/1.0/"
   xmlns:dc="http://purl.org/dc/elements/1.1/"
   xmlns:cc="http://creativecommons.org/ns#"
   xmlns:rdf="http://www.w3.org/1999/02/22-rdf-syntax-ns#"
   xmlns:svg="http://www.w3.org/2000/svg"
   xmlns="http://www.w3.org/2000/svg"
   xmlns:xlink="http://www.w3.org/1999/xlink"
   xmlns:sodipodi="http://sodipodi.sourceforge.net/DTD/sodipodi-0.dtd"
   xmlns:inkscape="http://www.inkscape.org/namespaces/inkscape"
   version="1.1"
   id="Layer_1"
   width="128"
   height="128"
   viewBox="0 0 128 128"
   overflow="visible"
   enable-background="new 0 0 128 128"
   xml:space="preserve"
   sodipodi:version="0.32"
   inkscape:version="0.46"
   sodipodi:docname="previewer-22.svgz"
   sodipodi:docbase="/home/pinheiro/Documents/pics/trabalhos pagos2007/gexcon/128x128"
   inkscape:output_extension="org.inkscape.output.svgz.inkscape"
   inkscape:export-filename="/home/danny/64.png"
   inkscape:export-xdpi="45"
   inkscape:export-ydpi="45"><defs
   id="defs105"><inkscape:perspective
     sodipodi:type="inkscape:persp3d"
     inkscape:vp_x="0 : 64 : 1"
     inkscape:vp_y="0 : 1000 : 0"
     inkscape:vp_z="128 : 64 : 1"
     inkscape:persp3d-origin="64 : 42.666667 : 1"
     id="perspective140" /><linearGradient
     inkscape:collect="always"
     id="linearGradient3437"><stop
       style="stop-color:#ffffff;stop-opacity:1;"
       offset="0"
       id="stop3439" /><stop
       style="stop-color:#ffffff;stop-opacity:0;"
       offset="1"
       id="stop3441" /></linearGradient><linearGradient
     inkscape:collect="always"
     id="linearGradient3429"><stop
       style="stop-color:#ffffff;stop-opacity:1;"
       offset="0"
       id="stop3431" /><stop
       style="stop-color:#ffffff;stop-opacity:0;"
       offset="1"
       id="stop3433" /></linearGradient><linearGradient
     id="linearGradient3423"><stop
       id="stop3425"
       offset="0"
       style="stop-color:#2a2a2a;stop-opacity:1" /><stop
       id="stop3427"
       offset="1"
       style="stop-color:#bfbfbf;stop-opacity:1;" /></linearGradient><linearGradient
     inkscape:collect="always"
     id="linearGradient3390"><stop
       style="stop-color:#ffffff;stop-opacity:1;"
       offset="0"
       id="stop3392" /><stop
       style="stop-color:#ffffff;stop-opacity:0;"
       offset="1"
       id="stop3394" /></linearGradient><linearGradient
     id="linearGradient3362"><stop
       id="stop3364"
       offset="0"
       style="stop-color:#ffffff;stop-opacity:0;" /><stop
       style="stop-color:#ffffff;stop-opacity:0;"
       offset="0.5"
       id="stop3368" /><stop
       id="stop3366"
       offset="1"
       style="stop-color:#ffffff;stop-opacity:1;" /></linearGradient><linearGradient
     id="linearGradient3337"><stop
       style="stop-color:#ffffff;stop-opacity:1;"
       offset="0"
       id="stop3339" /><stop
       style="stop-color:#ffffff;stop-opacity:0;"
       offset="1"
       id="stop3341" /></linearGradient><linearGradient
     id="linearGradient3312"><stop
       style="stop-color:#adff1b;stop-opacity:1;"
       offset="0"
       id="stop3314" /><stop
       style="stop-color:#e4ffb4;stop-opacity:0;"
       offset="1"
       id="stop3316" /></linearGradient><linearGradient
     inkscape:collect="always"
     id="linearGradient3300"><stop
       style="stop-color:#060606;stop-opacity:1;"
       offset="0"
       id="stop3302" /><stop
       style="stop-color:#060606;stop-opacity:0;"
       offset="1"
       id="stop3304" /></linearGradient><linearGradient
     id="linearGradient3138"><stop
       style="stop-color:#ffffff;stop-opacity:1;"
       offset="0"
       id="stop3140" /><stop
       style="stop-color:#d9d9d9;stop-opacity:1;"
       offset="1"
       id="stop3142" /></linearGradient><linearGradient
     id="linearGradient3116"><stop
       style="stop-color:#ffffff;stop-opacity:0;"
       offset="0"
       id="stop3118" /><stop
       id="stop3126"
       offset="0.38366336"
       style="stop-color:#000000;stop-opacity:0;" /><stop
       id="stop3124"
       offset="0.88887131"
       style="stop-color:#0086d6;stop-opacity:0.07843138;" /><stop
       style="stop-color:#0b009b;stop-opacity:0.47450981;"
       offset="1"
       id="stop3120" /></linearGradient><linearGradient
     inkscape:collect="always"
     id="linearGradient3108"><stop
       style="stop-color:#000000;stop-opacity:1;"
       offset="0"
       id="stop3110" /><stop
       style="stop-color:#000000;stop-opacity:0;"
       offset="1"
       id="stop3112" /></linearGradient><linearGradient
     id="linearGradient2974"><stop
       id="stop2976"
       offset="0"
       style="stop-color:#ffffff;stop-opacity:0.87272727;" /><stop
       id="stop2978"
       offset="1"
       style="stop-color:#ffffff;stop-opacity:0;" /></linearGradient><linearGradient
     inkscape:collect="always"
     id="linearGradient2962"><stop
       style="stop-color:#000000;stop-opacity:1;"
       offset="0"
       id="stop2964" /><stop
       style="stop-color:#000000;stop-opacity:0;"
       offset="1"
       id="stop2966" /></linearGradient><linearGradient
     inkscape:collect="always"
     id="linearGradient2944"><stop
       style="stop-color:#ffffff;stop-opacity:1;"
       offset="0"
       id="stop2946" /><stop
       style="stop-color:#ffffff;stop-opacity:0;"
       offset="1"
       id="stop2948" /></linearGradient><linearGradient
     id="linearGradient5368"><stop
       style="stop-color:#0590ff;stop-opacity:1;"
       offset="0"
       id="stop5370" /><stop
       style="stop-color:#c6e6ff;stop-opacity:1;"
       offset="1"
       id="stop5372" /></linearGradient><radialGradient
     gradientUnits="userSpaceOnUse"
     r="111.0006"
     cy="-9"
     cx="51.9995"
     id="XMLID_5_"
     gradientTransform="translate(-103.157,-34.959)">
				<stop
   id="stop2424"
   style="stop-color:#1f79ff;stop-opacity:1;"
   offset="0.15000001" />
				
				
				
				<stop
   id="stop22"
   style="stop-color:#163a66;stop-opacity:1;"
   offset="1" />
			</radialGradient><filter
     inkscape:collect="always"
     id="filter3223"
     x="-0.071122697"
     width="1.1422454"
     y="-0.11003595"
     height="1.2200719"><feGaussianBlur
       inkscape:collect="always"
       stdDeviation="3.4970547"
       id="feGaussianBlur3225" /></filter><filter
     inkscape:collect="always"
     id="filter3272"><feGaussianBlur
       inkscape:collect="always"
       stdDeviation="0.86270686"
       id="feGaussianBlur3274" /></filter><radialGradient
     inkscape:collect="always"
     xlink:href="#linearGradient3116"
     id="radialGradient3276"
     gradientUnits="userSpaceOnUse"
     gradientTransform="matrix(0.9971672,-0.3390249,0.4037194,1.0423219,28.684146,-104.20903)"
     cx="-316.32654"
     cy="-70.08773"
     fx="-316.32654"
     fy="-70.08773"
     r="65.282901" /><radialGradient
     inkscape:collect="always"
     xlink:href="#linearGradient3108"
     id="radialGradient3278"
     gradientUnits="userSpaceOnUse"
     gradientTransform="matrix(1.0626349,-0.5852658,0.5365248,0.8513633,53.67453,-202.74658)"
     cx="-304.46667"
     cy="-68.145134"
     fx="-315.06882"
     fy="-57.974445"
     r="65.186401" /><radialGradient
     inkscape:collect="always"
     xlink:href="#linearGradient2974"
     id="radialGradient3280"
     gradientUnits="userSpaceOnUse"
     gradientTransform="matrix(1,0,0,1.1440679,0,10.926917)"
     cx="-313.77863"
     cy="-75.845619"
     fx="-327.88126"
     fy="-122.29082"
     r="65.186401" /><radialGradient
     inkscape:collect="always"
     xlink:href="#linearGradient2962"
     id="radialGradient3282"
     gradientUnits="userSpaceOnUse"
     gradientTransform="matrix(1,0,0,1.1440679,0,10.926917)"
     cx="-313.77863"
     cy="-75.845619"
     fx="-313.77863"
     fy="-75.845619"
     r="65.186401" /><linearGradient
     inkscape:collect="always"
     xlink:href="#linearGradient2944"
     id="linearGradient3284"
     gradientUnits="userSpaceOnUse"
     x1="-267.98022"
     y1="-226.54375"
     x2="-329.33154"
     y2="78.231689" /><radialGradient
     inkscape:collect="always"
     xlink:href="#linearGradient5368"
     id="radialGradient3286"
     gradientUnits="userSpaceOnUse"
     gradientTransform="matrix(0.9991719,4.0687586e-2,-0.1156105,2.8390666,-10.470822,173.53753)"
     cx="-318.59558"
     cy="-88.287811"
     fx="-318.59558"
     fy="-88.287811"
     r="65.186401" /><filter
     inkscape:collect="always"
     id="filter3323"><feGaussianBlur
       inkscape:collect="always"
       stdDeviation="0.76083033"
       id="feGaussianBlur3325" /></filter><filter
     inkscape:collect="always"
     id="filter3357"><feGaussianBlur
       inkscape:collect="always"
       stdDeviation="2.4020058"
       id="feGaussianBlur3359" /></filter><radialGradient
     inkscape:collect="always"
     xlink:href="#linearGradient3300"
     id="radialGradient3306"
     cx="-622.2656"
     cy="-51.687493"
     fx="-622.2656"
     fy="-51.687493"
     r="54.29687"
     gradientTransform="matrix(1,0,0,1.0791367,0,4.0903798)"
     gradientUnits="userSpaceOnUse" /><radialGradient
     inkscape:collect="always"
     xlink:href="#linearGradient3312"
     id="radialGradient3318"
     cx="-679.29685"
     cy="-60.281242"
     fx="-679.29685"
     fy="-60.281242"
     r="54.29687"
     gradientTransform="matrix(1,0,0,1.0791367,0,4.7704613)"
     gradientUnits="userSpaceOnUse" /><radialGradient
     inkscape:collect="always"
     xlink:href="#linearGradient3312"
     id="radialGradient3326"
     gradientUnits="userSpaceOnUse"
     gradientTransform="matrix(1,0,0,1.0791367,0,4.7704613)"
     cx="-679.29688"
     cy="-60.281242"
     fx="-679.29688"
     fy="-60.281242"
     r="54.296871" /><radialGradient
     inkscape:collect="always"
     xlink:href="#linearGradient3337"
     id="radialGradient3347"
     gradientUnits="userSpaceOnUse"
     gradientTransform="matrix(1,0,0,-0.5871672,0,108.24489)"
     cx="61.186333"
     cy="32.3125"
     fx="61.186333"
     fy="32.3125"
     r="55.265627" /><radialGradient
     inkscape:collect="always"
     xlink:href="#linearGradient3390"
     id="radialGradient3396"
     cx="61.643532"
     cy="35.13361"
     fx="58.739433"
     fy="26.369164"
     r="61.09005"
     gradientTransform="matrix(1.2864666,-2.4957247e-8,3.8541091e-8,2.098087,-18.212297,-57.205686)"
     gradientUnits="userSpaceOnUse" /><radialGradient
     inkscape:collect="always"
     xlink:href="#linearGradient3138"
     id="radialGradient3408"
     cx="67.575142"
     cy="114.02195"
     fx="67.575142"
     fy="114.02195"
     r="46.560341"
     gradientTransform="matrix(1.431622,0,0,0.9318569,-30.179866,0.1200605)"
     gradientUnits="userSpaceOnUse" /><linearGradient
     inkscape:collect="always"
     xlink:href="#linearGradient3423"
     id="linearGradient3421"
     gradientUnits="userSpaceOnUse"
     x1="73.21875"
     y1="101.15231"
     x2="73.21875"
     y2="24.669453" /><radialGradient
     inkscape:collect="always"
     xlink:href="#linearGradient3429"
     id="radialGradient3435"
     cx="56.315575"
     cy="-12.924999"
     fx="56.315575"
     fy="-12.924999"
     r="48.6875"
     gradientTransform="matrix(1,0,0,0.4428755,0,19.924165)"
     gradientUnits="userSpaceOnUse" /><radialGradient
     inkscape:collect="always"
     xlink:href="#linearGradient3437"
     id="radialGradient3443"
     cx="68.017006"
     cy="88.291992"
     fx="68.017006"
     fy="88.291992"
     r="58.142416"
     gradientTransform="matrix(0.9991611,-4.2631892e-2,9.5048617e-2,2.4140562,-8.3349709,-121.95014)"
     gradientUnits="userSpaceOnUse" /></defs><sodipodi:namedview
   inkscape:window-height="682"
   inkscape:window-width="1049"
   inkscape:pageshadow="2"
   inkscape:pageopacity="0.0"
   guidetolerance="10.0"
   gridtolerance="10.0"
   objecttolerance="10.0"
   borderopacity="1.0"
   bordercolor="#666666"
   pagecolor="#ffffff"
   id="base"
   inkscape:zoom="1.7734375"
   inkscape:cx="119.29543"
   inkscape:cy="40.840717"
   inkscape:window-x="94"
   inkscape:window-y="12"
   inkscape:current-layer="Layer_1"
   showgrid="false"
   inkscape:object-bbox="true"
   inkscape:grid-points="true"
   showguides="true"
   inkscape:guide-bbox="true"><inkscape:grid
     type="xygrid"
     id="grid2359"
     spacingx="5.8181px"
     spacingy="5.8181px"
     empspacing="2"
     visible="true"
     enabled="true" /><inkscape:grid
     id="GridFromPre046Settings"
     type="xygrid"
     originx="0px"
     originy="0px"
     spacingx="4px"
     spacingy="4px"
     color="#0000ff"
     empcolor="#0000ff"
     opacity="0.2"
     empopacity="0.4"
     empspacing="2"
     visible="true"
     enabled="false" /></sodipodi:namedview>
<metadata
   id="metadata3">
	<ns:sfw>
		<ns:slices>
			<ns:slice
   y="0"
   x="0"
   height="128"
   width="128"
   sliceID="1316743234" />
		</ns:slices>
		<ns:sliceSourceBounds
   y="0"
   x="0"
   height="128"
   width="128"
   bottomLeftOrigin="true" />
		<ns:optimizationSettings>
			<ns:targetSettings
   targetSettingsID="0"
   fileFormat="PNG24Format">
				<ns:PNG24Format
   transparency="true"
   filtered="false"
   matteColor="#FFFFFF"
   noMatteColor="false"
   interlaced="false">
					</ns:PNG24Format>
			</ns:targetSettings>
			<ns:targetSettings
   targetSettingsID="1696735251"
   fileFormat="PNG24Format">
				<ns:PNG24Format
   transparency="true"
   filtered="false"
   matteColor="#FFFFFF"
   noMatteColor="false"
   interlaced="false">
					</ns:PNG24Format>
			</ns:targetSettings>
		</ns:optimizationSettings>
	</ns:sfw>
<rdf:RDF><cc:Work
     rdf:about=""><dc:format>image/svg+xml</dc:format><dc:type
       rdf:resource="http://purl.org/dc/dcmitype/StillImage" /></cc:Work></rdf:RDF></metadata>

<radialGradient
   id="XMLID_7_"
   cx="102"
   cy="112.3047"
   r="139.5585"
   gradientUnits="userSpaceOnUse">
	<stop
   offset="0"
   style="stop-color:#3e3e3e;stop-opacity:1;"
   id="stop16" />
	
	
	
	
	<stop
   offset="0.1737"
   style="stop-color:#dfdfdf;stop-opacity:1;"
   id="stop26" />
	<stop
   offset="0.2099"
   style="stop-color:#ECF2F5"
   id="stop28" />
	<stop
   offset="0.2435"
   style="stop-color:#FAFCFD"
   id="stop30" />
	<stop
   offset="0.2722"
   style="stop-color:#FFFFFF"
   id="stop32" />
</radialGradient>

<radialGradient
   id="XMLID_8_"
   cx="102"
   cy="112.3047"
   r="139.55859"
   gradientUnits="userSpaceOnUse">
	<stop
   offset="0"
   style="stop-color:#535557"
   id="stop37" />
	
	<stop
   offset="0.11366145"
   style="stop-color:#898A8C"
   id="stop41" />
	
	
	<stop
   offset="0.20296688"
   style="stop-color:#ECECEC"
   id="stop47" />
	<stop
   offset="0.2363"
   style="stop-color:#FAFAFA"
   id="stop49" />
	<stop
   offset="0.2722"
   style="stop-color:#FFFFFF"
   id="stop51" />
	<stop
   offset="0.5313"
   style="stop-color:#FAFAFA"
   id="stop53" />
	<stop
   offset="0.8449"
   style="stop-color:#EBECEC"
   id="stop55" />
	<stop
   offset="1"
   style="stop-color:#E1E2E3"
   id="stop57" />
</radialGradient>

<linearGradient
   id="XMLID_9_"
   gradientUnits="userSpaceOnUse"
   x1="94.3438"
   y1="102.3447"
   x2="86.5356"
   y2="94.5366">
	<stop
   offset="0"
   style="stop-color:#FFFFFF"
   id="stop62" />
	<stop
   offset="1"
   style="stop-color:#555753"
   id="stop64" />
</linearGradient>

<linearGradient
   id="XMLID_10_"
   gradientUnits="userSpaceOnUse"
   x1="95"
   y1="103"
   x2="86.5865"
   y2="94.5865">
	<stop
   offset="0"
   style="stop-color:#FFFFFF"
   id="stop69" />
	<stop
   offset="1"
   style="stop-color:#555753"
   id="stop71" />
</linearGradient>

<linearGradient
   id="XMLID_11_"
   gradientUnits="userSpaceOnUse"
   x1="95"
   y1="103"
   x2="87.293"
   y2="95.293">
	<stop
   offset="0"
   style="stop-color:#FFFFFF"
   id="stop76" />
	<stop
   offset="1"
   style="stop-color:#393B38"
   id="stop78" />
</linearGradient>

<linearGradient
   id="XMLID_12_"
   gradientUnits="userSpaceOnUse"
   x1="96"
   y1="104"
   x2="88.0002"
   y2="96.0002">
	<stop
   offset="0"
   style="stop-color:#888A85"
   id="stop83" />
	<stop
   offset="0.0072"
   style="stop-color:#8C8E89"
   id="stop85" />
	<stop
   offset="0.0673"
   style="stop-color:#ABACA9"
   id="stop87" />
	<stop
   offset="0.1347"
   style="stop-color:#C5C6C4"
   id="stop89" />
	<stop
   offset="0.2115"
   style="stop-color:#DBDBDA"
   id="stop91" />
	<stop
   offset="0.3012"
   style="stop-color:#EBEBEB"
   id="stop93" />
	<stop
   offset="0.4122"
   style="stop-color:#F7F7F6"
   id="stop95" />
	<stop
   offset="0.5679"
   style="stop-color:#FDFDFD"
   id="stop97" />
	<stop
   offset="1"
   style="stop-color:#FFFFFF"
   id="stop99" />
</linearGradient>


<g
   id="g3377"><rect
     ry="12.241349"
     rx="12.241349"
     y="5.2742004"
     x="0"
     height="93.6353"
     width="122.1801"
     id="rect3330"
     style="opacity:1;fill:#000000;fill-opacity:1;stroke:none;stroke-width:0.78600001;stroke-linecap:round;stroke-linejoin:round;stroke-miterlimit:4;stroke-dasharray:none;stroke-opacity:1" /><path
     style="opacity:1;fill:url(#radialGradient3347);fill-opacity:1;stroke:none;stroke-width:0.78600001;stroke-linecap:round;stroke-linejoin:round;stroke-miterlimit:4;stroke-dasharray:none;stroke-opacity:1"
     d="M 18.170707,98.8033 C 11.388997,98.8033 5.9207065,93.36625 5.9207065,86.58455 L 5.9207065,80.740798 C 5.9207065,87.5225 11.388997,92.9908 18.170707,92.9908 L 104.23321,92.9908 C 111.01492,92.9908 116.45196,87.5225 116.45196,80.740798 L 116.45196,86.58455 C 116.45196,93.36625 111.01492,98.8033 104.23321,98.8033 L 18.170707,98.8033 z"
     id="path3345"
     sodipodi:nodetypes="ccccccccc" /><rect
     style="opacity:1;fill:url(#radialGradient3396);fill-opacity:1;stroke:none;stroke-width:0.78600000999999986;stroke-linecap:round;stroke-linejoin:round;stroke-miterlimit:4;stroke-dasharray:none;stroke-opacity:1"
     id="rect3388"
     width="122.1801"
     height="93.6353"
     x="0"
     y="5.2742004"
     rx="12.241349"
     ry="12.241349" /></g><g
   id="g3382"><rect
     style="opacity:1;fill:#000000;fill-opacity:1;stroke:none;stroke-width:0.78600001;stroke-linecap:round;stroke-linejoin:round;stroke-miterlimit:4;stroke-dasharray:none;stroke-opacity:1"
     id="rect3384"
     width="110.54398"
     height="81.4534"
     x="5.8181"
     y="11.638"
     rx="5.7621331"
     ry="5.7621331" /><path
     sodipodi:nodetypes="ccccccccc"
     id="path3386"
     d="M 18.170707,98.8033 C 11.388997,98.8033 5.9207065,93.36625 5.9207065,86.58455 L 5.9207065,80.740798 C 5.9207065,87.5225 11.388997,92.9908 18.170707,92.9908 L 104.23321,92.9908 C 111.01492,92.9908 116.45196,87.5225 116.45196,80.740798 L 116.45196,86.58455 C 116.45196,93.36625 111.01492,98.8033 104.23321,98.8033 L 18.170707,98.8033 z"
     style="opacity:1;fill:url(#radialGradient3347);fill-opacity:1;stroke:none;stroke-width:0.78600001;stroke-linecap:round;stroke-linejoin:round;stroke-miterlimit:4;stroke-dasharray:none;stroke-opacity:1" /></g><path
   style="fill:url(#radialGradient3408);fill-opacity:1;fill-rule:evenodd;stroke:none;stroke-width:1px;stroke-linecap:butt;stroke-linejoin:miter;stroke-opacity:1"
   d="M 26.770509,86.011429 L 56.849001,61.948635 L 81.205858,68.755497 L 101.81899,83.596952 L 122.01986,109.15723 L 109.65198,118.63928 L 88.626586,123.58643 L 76.670969,123.58643 L 65.127615,121.93738 L 40.391857,109.98177 L 28.848503,98.026144 L 26.770509,86.011429 z"
   id="path3400" /><rect
   style="opacity:1;fill:#6d6d6d;fill-opacity:0.44864866;stroke:none;stroke-width:0.78600000999999986;stroke-linecap:round;stroke-linejoin:round;stroke-miterlimit:4;stroke-dasharray:none;stroke-opacity:1"
   id="rect3398"
   width="98.9077"
   height="34.9086"
   x="11.6362"
   y="23.2742"
   rx="5.7621331"
   ry="5.7621331" /><path
   sodipodi:nodetypes="cscccsccc"
   id="path3161"
   d="M 20.438369,84.983841 C 20.438369,84.983841 39.61419,58.875507 62.730581,63.583358 C 85.846974,68.291218 114.01998,106.49376 114.01998,106.49376 C 105.7882,119.63277 85.157812,124.29887 69.001871,125.60751 C 85.847579,125.5521 108.42991,130.22785 126.84454,108.11309 C 126.84454,108.11309 96.107654,55.613283 65.211016,50.204079 C 34.314385,44.794875 8.8381691,85.583441 8.8381691,85.583441 C 18.333388,108.34661 38.890254,118.20455 62.564257,124.4258 C 42.560463,114.30492 27.980993,105.26577 20.438369,84.983841 z"
   style="opacity:0.36059481;fill:#000000;fill-opacity:1;fill-rule:evenodd;stroke:none;stroke-width:1px;stroke-linecap:butt;stroke-linejoin:miter;stroke-opacity:1;filter:url(#filter3223)"
   transform="matrix(0.9183067,0,0,0.8821398,11.362335,13.292039)" /><path
   sodipodi:type="arc"
   style="fill:url(#radialGradient3286);fill-opacity:1;stroke:none;stroke-width:0.193;stroke-linecap:round;stroke-linejoin:round;stroke-miterlimit:4;stroke-dasharray:none;stroke-dashoffset:1.08779998;stroke-opacity:1"
   id="path2926"
   sodipodi:cx="-313.77863"
   sodipodi:cy="-75.845619"
   sodipodi:rx="65.186401"
   sodipodi:ry="74.577667"
   d="M -248.59222,-75.845619 A 65.186401,74.577667 0 1 1 -378.96503,-75.845619 A 65.186401,74.577667 0 1 1 -248.59222,-75.845619 z"
   transform="matrix(0.3280811,-6.4118004e-2,7.1159589e-2,0.3483783,173.8844,99.134194)" /><g
   id="g3102"
   transform="matrix(0.3343836,4.2577254e-2,-2.9808726e-2,0.3516615,272.06931,138.40682)"><path
     id="path2994"
     d="M -618.74997,-55.593742 C -609.37497,-64.968742 -573.43748,-91.53124 -573.43748,-91.53124 L -615.62497,-49.343743 L -567.96873,-49.343743 L -617.18747,-45.437493 L -571.87498,-6.3749943 L -625.35126,-45.649822 L -602.34372,6.9062548 L -610.15622,-50.906243 L -655.46872,-8.7187443 L -619.53122,-64.968742 L -623.43747,-46.999993 L -676.56247,-46.999993 L -627.34372,-60.281242 L -630.50107,-53.061034 L -657.81247,-100.90624 L -620.31247,-46.218743 L -630.46872,-110.28124 L -612.49997,-50.124993 L -596.87497,-101.68749 L -627.34372,-53.249992 L -572.65623,-59.499992 L -624.21872,-50.906243 L -579.68747,-33.718743 L -621.87497,-46.999993 L -635.93747,-5.5937443 L -613.28122,-47.781243 L -668.57182,-28.4564 L -603.90622,-36.843743 L -618.74997,-55.593742 z"
     style="opacity:0.58108108;fill:url(#radialGradient3306);fill-opacity:1;fill-rule:evenodd;stroke:none;stroke-width:1px;stroke-linecap:butt;stroke-linejoin:miter;stroke-opacity:1"
     sodipodi:nodetypes="cccccccccccccccccccccccccccccc" /><path
     transform="matrix(-0.999898,1.4281948e-2,-1.4281948e-2,-0.999898,-1302.3542,-102.2609)"
     style="opacity:1;fill:url(#radialGradient3318);fill-opacity:1;fill-rule:evenodd;stroke:none;stroke-width:1px;stroke-linecap:butt;stroke-linejoin:miter;stroke-opacity:1"
     d="M -675.78122,-64.187492 C -666.40622,-73.562492 -630.46873,-100.12499 -630.46873,-100.12499 L -672.65622,-57.937493 L -624.99998,-57.937493 L -674.21872,-54.031243 L -628.90623,-14.968744 L -677.34372,-47.781243 L -659.37497,-1.6874949 L -667.18747,-59.499993 L -712.49997,-17.312494 L -676.56247,-73.562492 L -680.46872,-55.593743 L -733.59372,-55.593743 L -684.37497,-68.874992 L -685.15622,-51.687493 L -714.84372,-109.49999 L -677.34372,-54.812493 L -687.49997,-118.87499 L -669.53122,-58.718743 L -653.90622,-110.28124 L -684.37497,-61.843742 L -629.68748,-68.093742 L -681.24997,-59.499993 L -636.71872,-42.312493 L -678.90622,-55.593743 L -692.96872,-14.187494 L -670.31247,-56.374993 L -718.74997,-47.781243 L -660.93747,-45.437493 L -675.78122,-64.187492 z"
     id="path3072" /><path
     id="path3324"
     d="M -675.78122,-64.187492 C -666.40622,-73.562492 -620.49789,-86.2095 -620.49789,-86.2095 L -672.65622,-57.937493 L -619.15606,-57.06265 L -674.21872,-54.031243 L -628.90623,-14.968744 L -677.34372,-47.781243 L -681.30094,0.15068073 L -667.18747,-59.499993 L -725.71427,-18.400168 L -676.56247,-73.562492 L -680.46872,-55.593743 L -736.89784,-78.707739 L -684.37497,-68.874992 L -685.15622,-51.687493 L -719.53957,-95.019494 L -677.34372,-54.812493 L -671.34653,-113.60711 L -669.53122,-58.718743 L -640.65757,-101.708 L -684.37497,-61.843742 L -629.68748,-68.093742 L -681.24997,-59.499993 L -623.54414,-34.729923 L -678.90622,-55.593743 L -685.86295,-3.4615399 L -670.31247,-56.374993 L -718.74997,-47.781243 L -673.89253,-43.057832 L -675.78122,-64.187492 z"
     style="opacity:1;fill:url(#radialGradient3326);fill-opacity:1;fill-rule:evenodd;stroke:none;stroke-width:1px;stroke-linecap:butt;stroke-linejoin:miter;stroke-opacity:1"
     transform="matrix(-0.999898,1.4281948e-2,-1.4281948e-2,-0.999898,-1302.3542,-102.2609)"
     sodipodi:nodetypes="cccccccccccccccccccccccccccccc" /></g><path
   transform="matrix(0.1328624,-2.5965769e-2,2.8817382e-2,0.1410822,109.41748,95.383043)"
   d="M -248.59222,-75.845619 A 65.186401,74.577667 0 1 1 -378.96503,-75.845619 A 65.186401,74.577667 0 1 1 -248.59222,-75.845619 z"
   sodipodi:ry="74.577667"
   sodipodi:rx="65.186401"
   sodipodi:cy="-75.845619"
   sodipodi:cx="-313.77863"
   id="path2936"
   style="fill:#000000;fill-opacity:1;stroke:none;stroke-width:0.193;stroke-linecap:round;stroke-linejoin:round;stroke-miterlimit:4;stroke-dasharray:none;stroke-dashoffset:1.08779998;stroke-opacity:1"
   sodipodi:type="arc" /><path
   transform="matrix(0.2044246,-0.1101182,0.1148957,0.1287091,136.58145,54.258597)"
   d="M -255.09231,-75.845619 A 58.686314,74.577667 0 1 1 -372.46494,-75.845619 A 58.686314,74.577667 0 1 1 -255.09231,-75.845619 z"
   sodipodi:ry="74.577667"
   sodipodi:rx="58.686314"
   sodipodi:cy="-75.845619"
   sodipodi:cx="-313.77863"
   id="path2940"
   style="fill:url(#linearGradient3284);fill-opacity:1;stroke:none;stroke-width:0.193;stroke-linecap:round;stroke-linejoin:round;stroke-miterlimit:4;stroke-dasharray:none;stroke-dashoffset:1.08779998;stroke-opacity:1"
   sodipodi:type="arc" /><path
   sodipodi:type="arc"
   style="fill:url(#radialGradient3282);fill-opacity:1;stroke:none;stroke-width:0.193;stroke-linecap:round;stroke-linejoin:round;stroke-miterlimit:4;stroke-dasharray:none;stroke-dashoffset:1.08779998;stroke-opacity:1"
   id="path2960"
   sodipodi:cx="-313.77863"
   sodipodi:cy="-75.845619"
   sodipodi:rx="65.186401"
   sodipodi:ry="74.577667"
   d="M -248.59222,-75.845619 A 65.186401,74.577667 0 1 1 -378.96503,-75.845619 A 65.186401,74.577667 0 1 1 -248.59222,-75.845619 z"
   transform="matrix(0.1328624,-2.5965769e-2,2.8817382e-2,0.1410822,109.41748,95.383043)" /><path
   transform="matrix(0.1328624,-2.5965769e-2,2.8817382e-2,0.1410822,109.41748,95.383043)"
   d="M -248.59222,-75.845619 A 65.186401,74.577667 0 1 1 -378.96503,-75.845619 A 65.186401,74.577667 0 1 1 -248.59222,-75.845619 z"
   sodipodi:ry="74.577667"
   sodipodi:rx="65.186401"
   sodipodi:cy="-75.845619"
   sodipodi:cx="-313.77863"
   id="path2970"
   style="fill:url(#radialGradient3280);fill-opacity:1;stroke:none;stroke-width:0.193;stroke-linecap:round;stroke-linejoin:round;stroke-miterlimit:4;stroke-dasharray:none;stroke-dashoffset:1.08779998;stroke-opacity:1"
   sodipodi:type="arc" /><path
   transform="matrix(0.3280811,-6.4118004e-2,7.1159589e-2,0.3483783,173.8844,99.134194)"
   d="M -248.59222,-75.845619 A 65.186401,74.577667 0 1 1 -378.96503,-75.845619 A 65.186401,74.577667 0 1 1 -248.59222,-75.845619 z"
   sodipodi:ry="74.577667"
   sodipodi:rx="65.186401"
   sodipodi:cy="-75.845619"
   sodipodi:cx="-313.77863"
   id="path3106"
   style="fill:url(#radialGradient3276);fill-opacity:1;stroke:url(#radialGradient3278);stroke-width:0.193;stroke-linecap:round;stroke-linejoin:round;stroke-miterlimit:4;stroke-dasharray:none;stroke-dashoffset:1.08779998;stroke-opacity:1"
   sodipodi:type="arc" /><path
   sodipodi:nodetypes="ccc"
   id="path3327"
   d="M 3,57 C 48,-3 96,37 125,82 C 88.045787,9.982477 44,-15 3,57 z"
   style="opacity:0.74721189;fill:#101010;fill-opacity:1;fill-rule:evenodd;stroke:none;stroke-width:1px;stroke-linecap:butt;stroke-linejoin:miter;stroke-opacity:1;filter:url(#filter3357)"
   transform="matrix(0.8821398,0,0,0.8821398,15.949927,13.292039)" /><path
   style="fill:url(#linearGradient3421);fill-opacity:1;fill-rule:evenodd;stroke:none;stroke-width:1px;stroke-linecap:butt;stroke-linejoin:miter;stroke-opacity:1"
   d="M 63.40625 24.6875 C 48.425827 25.205349 33.286891 36.884912 18.59375 62.6875 C 58.29004 9.7591157 100.63671 45.053711 126.21875 84.75 C 106.86323 47.029346 85.300715 23.930644 63.40625 24.6875 z M 64.6875 57.15625 C 39.352139 58.195773 19.46875 88.78125 19.46875 88.78125 C 28.188275 108.86155 47.072501 117.57449 68.8125 123.0625 C 50.442876 114.13448 37.051444 106.1415 30.125 88.25 C 30.125001 88.249999 47.740811 65.222018 68.96875 69.375 C 90.196692 73.527991 116.0625 107.25 116.0625 107.25 C 108.50321 118.84046 89.55486 122.93934 74.71875 124.09375 C 90.188276 124.04487 110.93346 128.16456 127.84375 108.65625 C 127.84375 108.65625 99.622599 62.365425 71.25 57.59375 C 69.033392 57.220963 66.834565 57.068155 64.6875 57.15625 z "
   id="path2924" /><path
   style="fill:url(#radialGradient3435);fill-opacity:1;fill-rule:evenodd;stroke:none;stroke-width:1px;stroke-linecap:butt;stroke-linejoin:miter;stroke-opacity:1;filter:url(#filter3323);opacity:0.95945946"
   d="M 56.0375,14.206922 C 55.35179,14.187056 54.66142,14.214031 53.975,14.236455 C 40.16411,14.687642 26.23488,23.792461 12.6,43.474056 C 13.91332,42.186013 15.22216,40.953481 16.5375,39.811973 C 46.47116,1.2131881 77.6414,12.502697 105.56875,52.570198 C 107.06811,54.112424 108.52805,55.708679 109.975,57.325 C 92.97198,30.779968 74.64587,14.74603 56.0375,14.206922 z"
   id="path3290"
   transform="matrix(0.8821398,0,0,0.8821398,15.949927,13.292039)" /><path
   style="fill:url(#radialGradient3443);fill-opacity:1;fill-rule:evenodd;stroke:none;stroke-width:1px;stroke-linecap:butt;stroke-linejoin:miter;stroke-opacity:1;filter:url(#filter3272)"
   d="M 59.781315,50.846503 C 31.942472,50.870265 9.874588,86.190687 9.874588,86.190687 C 10.040368,86.588111 10.225399,86.971127 10.397977,87.360616 C 13.071771,83.250238 36.736969,48.28865 65.415448,53.309512 C 93.884167,58.29365 121.90212,103.30984 125.4513,109.18904 C 125.68612,108.91732 125.92594,108.66895 126.15942,108.38856 C 126.15942,108.38856 95.854931,56.668273 65.415448,51.339105 C 63.512982,51.006032 61.637237,50.844919 59.781315,50.846503 z M 19.320183,85.798802 C 19.115842,86.062182 18.827581,86.445342 18.827581,86.445342 C 25.16051,103.47444 36.53505,112.47225 51.955057,120.92747 C 54.691616,121.7972 57.487384,122.61287 60.329289,123.35969 C 41.061191,113.61104 26.887089,104.85747 19.320183,85.798802 z M 114.29759,107.63438 C 105.76444,119.76998 86.144992,124.14548 70.671538,125.39884 C 74.513665,125.3862 78.659729,125.63583 82.986584,125.7375 C 95.858118,123.30689 108.89401,118.31308 115.00571,108.55801 C 115.00571,108.55801 114.5669,107.99011 114.29759,107.63438 z"
   id="path3227"
   sodipodi:nodetypes="cccscssccccccccccc"
   transform="matrix(0.9183067,0,0,0.8821398,11.362335,13.292039)" /></svg>